<?xml version="1.0" encoding="UTF-8"?>
<svg width="108px" height="101px" viewBox="0 0 108 101" version="1.1" xmlns="http://www.w3.org/2000/svg" xmlns:xlink="http://www.w3.org/1999/xlink">
    <title>Group 2</title>
    <defs>
        <filter x="-5.1%" y="-1.1%" width="110.2%" height="111.0%" filterUnits="objectBoundingBox" id="filter-1">
            <feMorphology radius="5" operator="erode" in="SourceAlpha" result="shadowSpreadOuter1"></feMorphology>
            <feOffset dx="0" dy="4" in="shadowSpreadOuter1" result="shadowOffsetOuter1"></feOffset>
            <feGaussianBlur stdDeviation="2.5" in="shadowOffsetOuter1" result="shadowBlurOuter1"></feGaussianBlur>
            <feColorMatrix values="0 0 0 0 0.8729   0 0 0 0 0.5071   0 0 0 0 0.592453333  0 0 0 0.504971591 0" type="matrix" in="shadowBlurOuter1" result="shadowMatrixOuter1"></feColorMatrix>
            <feMerge>
                <feMergeNode in="shadowMatrixOuter1"></feMergeNode>
                <feMergeNode in="SourceGraphic"></feMergeNode>
            </feMerge>
        </filter>
    </defs>
    <g id="Page-1" stroke="none" stroke-width="1" fill="none" fill-rule="evenodd">
        <g id="Large-Copy-5" transform="translate(-410, -936)">
            <g id="Group-2" filter="url(#filter-1)" transform="translate(415, 937)">
                <path d="M49.1707317,91 C39.495935,91 30.9593496,89.2257862 23.5609756,85.6773585 C16.1626016,82.1289308 10.3861789,76.9779874 6.23170732,70.2245283 C2.07723577,63.4710692 0,55.4584906 0,46.1867925 C0,36.8006289 2.07723577,28.6449686 6.23170732,21.7198113 C10.3861789,14.7946541 16.1910569,9.44339623 23.6463415,5.66603774 C31.101626,1.88867925 39.6097561,0 49.1707317,0 C59.300813,0 68.0365854,1.86006289 75.3780488,5.58018868 C82.7195122,9.30031447 88.3252033,14.622956 92.195122,21.5481132 C96.0650407,28.4732704 98,36.6861635 98,46.1867925 C98,55.4584906 95.9512195,63.4710692 91.8536585,70.2245283 C87.7560976,76.9779874 82.0365854,82.1289308 74.695122,85.6773585 C67.3536585,89.2257862 58.8455285,91 49.1707317,91 Z" id="Path" fill="#DF8197" fill-rule="nonzero"></path>
                <path d="M74.9806512,38.410633 L103.864412,71.6721907 C104.855138,72.8130771 104.733409,74.5410903 103.592522,75.5318163 C103.094822,75.9640105 102.457818,76.2019895 101.798654,76.2019895 L44.0311331,76.2019895 C42.5201203,76.2019895 41.2952024,74.9770716 41.2952024,73.4660588 C41.2952024,72.8068948 41.5331814,72.1698908 41.9653756,71.6721907 L70.8491361,38.410633 C71.839862,37.2697466 73.5678753,37.1480175 74.7087617,38.1387435 C74.8056558,38.2228847 74.89651,38.3137388 74.9806512,38.410633 Z" id="Triangle" fill="#EBFF85" transform="translate(72.9149, 56.1169) rotate(-90) translate(-72.9149, -56.1169)"></path>
                <path d="M42.3849065,38.410633 L71.268667,71.6721907 C72.259393,72.8130771 72.1376639,74.5410903 70.9967775,75.5318163 C70.4990774,75.9640105 69.8620734,76.2019895 69.2029094,76.2019895 L11.4353884,76.2019895 C9.92437561,76.2019895 8.6994577,74.9770716 8.6994577,73.4660588 C8.6994577,72.8068948 8.93743673,72.1698908 9.36963087,71.6721907 L38.2533914,38.410633 C39.2441174,37.2697466 40.9721306,37.1480175 42.113017,38.1387435 C42.2099112,38.2228847 42.3007653,38.3137388 42.3849065,38.410633 Z" id="Triangle-Copy" fill="#EBFF85" transform="translate(40.3191, 56.1169) rotate(-90) translate(-40.3191, -56.1169)"></path>
            </g>
        </g>
    </g>
</svg>