<?xml version="1.0" encoding="UTF-8"?>
<svg width="168px" height="209px" viewBox="0 0 168 209" version="1.1" xmlns="http://www.w3.org/2000/svg" xmlns:xlink="http://www.w3.org/1999/xlink">
    <title>Group 5</title>
    <g id="Page-1" stroke="none" stroke-width="1" fill="none" fill-rule="evenodd">
        <g id="Large" transform="translate(-1340, -762)" fill="#DF8197">
            <g id="Group-5" transform="translate(1340.3023, 762.4752)">
                <rect id="Rectangle" transform="translate(83.3605, 129.8699) rotate(-34) translate(-83.3605, -129.8699)" x="15.8604884" y="80.8699133" width="135" height="98" rx="6"></rect>
                <g id="Group-3" transform="translate(111.3549, 45.9855) rotate(-11) translate(-111.3549, -45.9855)translate(67.1252, 7.7367)">
                    <path d="M38.6706383,23.6951624 L41.3402267,35.2077622 C42.3057362,39.3715217 39.7130422,43.5296158 35.5492827,44.4951253 C34.9760461,44.6280497 34.3895195,44.6951624 33.8010731,44.6951624 C29.5268361,44.6951624 26.0618824,41.2302087 26.0618824,36.9559717 C26.0618824,36.3675254 26.1289951,35.7809988 26.2619196,35.2077622 L28.9315079,23.6951624 C29.5551338,21.0057758 32.2408611,19.3311459 34.9302477,19.9547717 C36.7886276,20.3857004 38.2397097,21.8367825 38.6706383,23.6951624 Z" id="Triangle" transform="translate(33.8011, 23.6952) rotate(-210) translate(-33.8011, -23.6952)"></path>
                    <path d="M57.9251797,23.0953812 L60.5947681,34.6079809 C61.5602775,38.7717405 58.9675836,42.9298345 54.803824,43.895344 C54.2305874,44.0282684 53.6440609,44.0953812 53.0556145,44.0953812 C48.7813775,44.0953812 45.3164238,40.6304275 45.3164238,36.3561904 C45.3164238,35.7677441 45.3835365,35.1812175 45.5164609,34.6079809 L48.1860493,23.0953812 C48.8096752,20.4059946 51.4954024,18.7313646 54.1847891,19.3549905 C56.043169,19.7859192 57.4942511,21.2370012 57.9251797,23.0953812 Z" id="Triangle" transform="translate(53.0556, 23.0954) rotate(-159) translate(-53.0556, -23.0954)"></path>
                    <path d="M70.3991178,37.7752303 L73.0687061,49.2878301 C74.0342156,53.4515896 71.4415216,57.6096837 67.2777621,58.5751931 C66.7045255,58.7081176 66.1179989,58.7752303 65.5295526,58.7752303 C61.2553156,58.7752303 57.7903619,55.3102766 57.7903619,51.0360396 C57.7903619,50.4475932 57.8574746,49.8610666 57.990399,49.2878301 L60.6599874,37.7752303 C61.2836132,35.0858437 63.9693405,33.4112137 66.6587271,34.0348396 C68.517107,34.4657683 69.9681891,35.9168504 70.3991178,37.7752303 Z" id="Triangle" transform="translate(65.5296, 37.7752) rotate(-107) translate(-65.5296, -37.7752)"></path>
                    <path d="M66.6993228,56.680484 L69.3689111,68.1930838 C70.3344206,72.3568433 67.7417266,76.5149374 63.5779671,77.4804469 C63.0047305,77.6133713 62.4182039,77.680484 61.8297575,77.680484 C57.5555205,77.680484 54.0905668,74.2155303 54.0905668,69.9412933 C54.0905668,69.3528469 54.1576795,68.7663204 54.290604,68.1930838 L56.9601923,56.680484 C57.5838182,53.9910974 60.2695455,52.3164675 62.9589321,52.9400933 C64.817312,53.371022 66.2683941,54.8221041 66.6993228,56.680484 Z" id="Triangle" transform="translate(61.8298, 56.6805) rotate(-56) translate(-61.8298, -56.6805)"></path>
                    <path d="M27.134556,39.1229266 L29.8041444,50.6355263 C30.7696538,54.7992858 28.1769599,58.9573799 24.0132003,59.9228894 C23.4399637,60.0558138 22.8534372,60.1229266 22.2649908,60.1229266 C17.9907538,60.1229266 14.5258001,56.6579728 14.5258001,52.3837358 C14.5258001,51.7952895 14.5929128,51.2087629 14.7258372,50.6355263 L17.3954256,39.1229266 C18.0190515,36.4335399 20.7047787,34.75891 23.3941654,35.3825359 C25.2525453,35.8134646 26.7036274,37.2645466 27.134556,39.1229266 Z" id="Triangle" transform="translate(22.265, 39.1229) rotate(99) translate(-22.265, -39.1229)"></path>
                </g>
            </g>
        </g>
    </g>
</svg>