<?xml version="1.0" encoding="UTF-8"?>
<svg width="228px" height="114px" viewBox="0 0 228 114" version="1.1" xmlns="http://www.w3.org/2000/svg" xmlns:xlink="http://www.w3.org/1999/xlink">
    <title>Group</title>
    <g id="Page-1" stroke="none" stroke-width="1" fill="none" fill-rule="evenodd">
        <g id="Large-Copy" transform="translate(-112, -117)" fill="#DF8197">
            <g id="Group" transform="translate(112, 117)">
                <g id="Kernel" fill-rule="nonzero">
                    <path d="M37.8645622,35.3478609 C38.241324,36.1773574 38.7028572,36.8089059 39.2491618,37.2425063 C39.7954665,37.6761067 40.3417711,37.9777418 40.8880757,38.1474115 C41.4343804,38.3170813 42.0089421,38.4207683 42.611761,38.4584727 C42.6494372,38.4584727 42.6965324,38.4584727 42.7530467,38.4584727 C42.809561,38.4584727 42.8566562,38.4584727 42.8943324,38.4584727 L42.8943324,39.5896043 L22.662223,39.5896043 L22.662223,38.4584727 C22.6998992,38.4584727 22.7469944,38.4584727 22.8035087,38.4584727 C22.860023,38.4584727 22.9071182,38.4584727 22.9447944,38.4584727 C23.4345848,38.4207683 23.8301847,38.3170813 24.1315941,38.1474115 C24.4330036,37.9777418 24.6308035,37.6572545 24.724994,37.1859497 C24.8191844,36.7146449 24.734413,36.0453921 24.4706797,35.1781912 L16.4456531,13.9129181 L15.8239961,14.4784838 L15.8239961,34.8388517 C15.8239961,35.7814614 15.9747009,36.5166969 16.2761103,37.0445583 C16.5775198,37.5724197 16.9448625,37.9306113 17.3781386,38.1191332 C17.8114147,38.3076552 18.3106241,38.4207683 18.8757668,38.4584727 L19.2148525,38.4584727 L19.2148525,39.5896043 L0,39.5896043 L0,38.4584727 C0.0376761813,38.4584727 0.0753523625,38.4584727 0.113028544,38.4584727 C0.150704725,38.4584727 0.188380906,38.4584727 0.226057088,38.4584727 C0.828875988,38.4207683 1.35634253,38.3076552 1.8084567,38.1191332 C2.26057088,37.9306113 2.63733269,37.5818458 2.93874214,37.0728366 C3.24015159,36.5638274 3.39085631,35.8191658 3.39085631,34.8388517 L3.39085631,4.75075251 C3.39085631,3.7704385 3.23073254,3.0163508 2.910485,2.48848941 C2.59023746,1.96062802 2.19463756,1.61186246 1.72368529,1.44219273 C1.25273303,1.27252299 0.715847444,1.16883594 0.113028544,1.13113155 C0.113028544,1.13113155 0.103609499,1.13113155 0.0847714079,1.13113155 C0.0659333172,1.13113155 0.0376761813,1.13113155 0,1.13113155 L0,0 L19.2148525,0 L19.2148525,1.13113155 L18.9887954,1.13113155 C18.3859765,1.16883594 17.8585099,1.28194909 17.4063957,1.47047102 C16.9542816,1.65899294 16.5775198,2.0077585 16.2761103,2.5167677 C15.9747009,3.0257769 15.8239961,3.7704385 15.8239961,4.75075251 L15.8239961,11.8768813 L25.6009652,3.61962096 C26.3544888,2.94094203 26.8631172,2.42250674 27.1268505,2.06431508 C27.3905838,1.70612342 27.4753552,1.47047102 27.3811647,1.35735786 C27.2869743,1.24424471 27.0514982,1.16883594 26.6747363,1.13113155 L26.5051935,1.13113155 L26.5051935,0 L36.3386768,0 L36.3386768,1.13113155 C36.3010007,1.13113155 36.2539054,1.13113155 36.1973912,1.13113155 C36.1408769,1.13113155 36.0937817,1.13113155 36.0561055,1.13113155 C35.340258,1.16883594 34.5773154,1.27252299 33.7672775,1.44219273 C32.9572396,1.61186246 32.0247541,1.93234973 30.969821,2.40365454 C29.9148879,2.87495936 28.8411168,3.52536 27.7485075,4.35485647 L26.5051935,5.42943144 L37.8645622,35.3478609 Z" id="Path"></path>
                    <path d="M56.0009052,40.4379529 C52.9114583,40.4379529 50.1705161,39.8346828 47.7780786,38.6281424 C45.3856411,37.4216021 43.492413,35.7249048 42.0983943,33.5380505 C40.7043756,31.3511961 39.9508519,28.8438545 39.8378234,26.0160257 C39.8378234,22.9996749 40.4971566,20.3132374 41.8158229,17.9567134 C43.1344893,15.6001893 44.952365,13.7621005 47.2694501,12.4424471 C49.5865353,11.1227936 52.1579347,10.4629668 54.9836483,10.4629668 C57.5079524,10.4629668 59.8627137,10.9908282 62.0479323,12.046551 C64.2331508,13.1022738 65.9756741,14.6010231 67.2755024,16.5427989 C68.5753307,18.4845747 69.2252448,20.6997074 69.2252448,23.1881968 L57.8658761,23.1881968 C57.9789047,20.5488898 57.9223904,18.409166 57.6963333,16.7690252 C57.4702762,15.1288845 57.1311906,13.9506225 56.6790764,13.2342391 C56.2269622,12.5178558 55.7371719,12.1596642 55.2097053,12.1596642 C54.4561817,12.1596642 53.8345247,12.7535082 53.3447344,13.9411964 C52.854944,15.1288845 52.5441155,16.7595991 52.4122489,18.8333403 C52.2803823,20.9070815 52.3274775,23.1881968 52.5535346,25.6766862 C52.7795917,28.0520624 53.259963,30.069247 53.9946485,31.72824 C54.729334,33.3872329 55.6241433,34.6314776 56.6790764,35.4609741 C57.7340095,36.2904706 58.9019711,36.7052188 60.1829613,36.7052188 C61.6523323,36.7052188 63.0463511,36.1019486 64.3650174,34.8954083 C65.6836837,33.688868 66.7009406,32.2561014 67.4167881,30.5971084 L69.1122162,31.6151268 C68.7354544,32.8593715 68.1514736,34.1130423 67.3602738,35.3761392 C66.569074,36.6392361 65.2504077,37.798646 63.4042748,38.8543687 C61.5581419,39.9100915 59.090352,40.4379529 56.0009052,40.4379529 Z M49.6713067,21.2087166 L66.7386168,21.2087166 L66.7386168,23.1881968 L49.6713067,23.1881968 L49.6713067,21.2087166 Z" id="Shape"></path>
                    <path d="M87.0830303,34.8388517 C87.0830303,35.8191658 87.1489637,36.5638274 87.2808303,37.0728366 C87.4126969,37.5818458 87.6104969,37.9306113 87.8742302,38.1191332 C88.1379634,38.3076552 88.4958871,38.4207683 88.9480013,38.4584727 L89.3436012,38.4584727 L89.3436012,39.5896043 L71.2590342,39.5896043 L71.2590342,38.4584727 L71.5981198,38.4584727 C72.1632626,38.4207683 72.662472,38.3076552 73.095748,38.1191332 C73.5290241,37.9306113 73.8963669,37.5724197 74.1977763,37.0445583 C74.4991858,36.5166969 74.6498905,35.7814614 74.6498905,34.8388517 L74.6498905,16.062068 C74.6498905,15.081754 74.4897668,14.3276663 74.1695192,13.7998049 C73.8492717,13.2719435 73.4630908,12.923178 73.0109766,12.7535082 C72.5588625,12.5838385 72.0313959,12.4801514 71.428577,12.4424471 C71.3909008,12.4424471 71.3626437,12.4424471 71.3438056,12.4424471 C71.3249675,12.4424471 71.2967104,12.4424471 71.2590342,12.4424471 L71.2590342,11.3113155 L87.0830303,11.3113155 L87.0830303,34.8388517 Z M91.7172006,13.2342391 C90.7376199,13.2342391 89.9087439,13.8280832 89.2305727,15.0157713 C88.5524014,16.2034595 88.0249349,17.9378612 87.6481731,20.2189765 C87.2714112,22.5000918 87.0830303,25.261938 87.0830303,28.5045151 L84.4833738,22.0570652 C84.8224595,19.5308714 85.4346974,17.3911476 86.3200877,15.6378937 C87.2054779,13.8846398 88.250992,12.5838385 89.4566298,11.7354898 C90.6622676,10.8871412 91.8679054,10.4629668 93.0735432,10.4629668 C94.279181,10.4629668 95.4471426,10.8211585 96.577428,11.5375418 C97.7077135,12.2539251 98.5931037,13.1588304 99.2335988,14.2522575 L100.533427,24.7152244 L98.2163419,24.7152244 C97.0860565,21.4726473 96.2289233,19.1066971 95.6449425,17.6173739 C95.0609617,16.1280507 94.4675619,15.0251974 93.864743,14.3088141 C93.2619241,13.5924308 92.5460766,13.2342391 91.7172006,13.2342391 Z" id="Shape"></path>
                    <path d="M136.702396,34.8388517 C136.702396,35.7814614 136.815424,36.5166969 137.041481,37.0445583 C137.267538,37.5724197 137.587786,37.9306113 138.002224,38.1191332 C138.416662,38.3076552 138.944128,38.4207683 139.584623,38.4584727 L140.093252,38.4584727 L140.093252,39.5896043 L122.008685,39.5896043 L122.008685,38.4584727 C122.084037,38.4584727 122.168809,38.4490466 122.262999,38.4301944 C122.357189,38.4113422 122.441961,38.4019161 122.517313,38.4019161 C123.04478,38.3265074 123.430961,38.2039681 123.675856,38.0342984 C123.920751,37.8646286 124.080875,37.5441414 124.156227,37.0728366 C124.23158,36.6015317 124.269256,35.8568701 124.269256,34.8388517 L124.269256,21.2652731 C124.269256,19.4177583 124.146808,18.0321221 123.901913,17.1083647 C123.657018,16.1846073 123.33677,15.571911 122.94117,15.2702759 C122.54557,14.9686408 122.065199,14.8178233 121.500056,14.8178233 C120.784209,14.8178233 120.171971,15.0346235 119.663343,15.4682239 C119.154714,15.9018244 118.749695,16.6841904 118.448286,17.8153219 C118.146876,18.9464535 117.996172,20.5111854 117.996172,22.5095178 L117.996172,34.8388517 C117.996172,35.8191658 118.062105,36.5544013 118.193971,37.0445583 C118.325838,37.5347153 118.523638,37.8740547 118.787371,38.0625767 C119.051105,38.2510986 119.409028,38.3642117 119.861142,38.4019161 C119.936495,38.4396205 120.002428,38.4584727 120.058942,38.4584727 C120.115457,38.4584727 120.18139,38.4584727 120.256742,38.4584727 L120.256742,39.5896043 L102.172175,39.5896043 L102.172175,38.4584727 L102.511261,38.4584727 C103.11408,38.3830639 103.622708,38.2510986 104.037146,38.0625767 C104.451584,37.8740547 104.809508,37.5252892 105.110918,37.01628 C105.412327,36.5072708 105.563032,35.7814614 105.563032,34.8388517 L105.563032,16.062068 C105.563032,15.081754 105.402908,14.3276663 105.08266,13.7998049 C104.762413,13.2719435 104.376232,12.923178 103.924118,12.7535082 C103.472004,12.5838385 102.944537,12.4801514 102.341718,12.4424471 C102.304042,12.4424471 102.275785,12.4424471 102.256947,12.4424471 C102.238109,12.4424471 102.209852,12.4424471 102.172175,12.4424471 L102.172175,11.3113155 L117.996172,11.3113155 L117.996172,14.9309365 C118.636667,13.4981698 119.682181,12.3953166 121.132714,11.6223767 C122.583247,10.8494368 124.193903,10.4629668 125.964684,10.4629668 C127.773141,10.4629668 129.496826,10.8023063 131.13574,11.4809852 C132.774654,12.1596642 134.112158,13.2153869 135.148253,14.6481536 C136.184348,16.0809202 136.702396,17.8530263 136.702396,19.9644719 L136.702396,34.8388517 Z" id="Path"></path>
                    <path d="M157.725042,40.4379529 C154.635596,40.4379529 151.894653,39.8346828 149.502216,38.6281424 C147.109778,37.4216021 145.21655,35.7249048 143.822531,33.5380505 C142.428513,31.3511961 141.674989,28.8438545 141.561961,26.0160257 C141.561961,22.9996749 142.221294,20.3132374 143.53996,17.9567134 C144.858626,15.6001893 146.676502,13.7621005 148.993587,12.4424471 C151.310673,11.1227936 153.882072,10.4629668 156.707785,10.4629668 C159.23209,10.4629668 161.586851,10.9908282 163.772069,12.046551 C165.957288,13.1022738 167.699811,14.6010231 168.99964,16.5427989 C170.299468,18.4845747 170.949382,20.6997074 170.949382,23.1881968 L159.590013,23.1881968 C159.703042,20.5488898 159.646528,18.409166 159.420471,16.7690252 C159.194413,15.1288845 158.855328,13.9506225 158.403214,13.2342391 C157.951099,12.5178558 157.461309,12.1596642 156.933843,12.1596642 C156.180319,12.1596642 155.558662,12.7535082 155.068872,13.9411964 C154.579081,15.1288845 154.268253,16.7595991 154.136386,18.8333403 C154.004519,20.9070815 154.051615,23.1881968 154.277672,25.6766862 C154.503729,28.0520624 154.9841,30.069247 155.718786,31.72824 C156.453471,33.3872329 157.348281,34.6314776 158.403214,35.4609741 C159.458147,36.2904706 160.626108,36.7052188 161.907099,36.7052188 C163.37647,36.7052188 164.770488,36.1019486 166.089155,34.8954083 C167.407821,33.688868 168.425078,32.2561014 169.140925,30.5971084 L170.836353,31.6151268 C170.459592,32.8593715 169.875611,34.1130423 169.084411,35.3761392 C168.293211,36.6392361 166.974545,37.798646 165.128412,38.8543687 C163.282279,39.9100915 160.814489,40.4379529 157.725042,40.4379529 Z M151.395444,21.2087166 L168.462754,21.2087166 L168.462754,23.1881968 L151.395444,23.1881968 L151.395444,21.2087166 Z" id="Shape"></path>
                    <path d="M173.258261,38.4584727 L173.597347,38.4584727 C174.16249,38.4207683 174.661699,38.3076552 175.094975,38.1191332 C175.528251,37.9306113 175.895594,37.5724197 176.197004,37.0445583 C176.498413,36.5166969 176.649118,35.7814614 176.649118,34.8388517 L176.649118,4.75075251 C176.649118,3.7704385 176.488994,3.0163508 176.168746,2.48848941 C175.848499,1.96062802 175.462318,1.61186246 175.010204,1.44219273 C174.55809,1.27252299 174.030623,1.16883594 173.427804,1.13113155 C173.390128,1.13113155 173.361871,1.13113155 173.343033,1.13113155 C173.324195,1.13113155 173.295938,1.13113155 173.258261,1.13113155 L173.258261,0 L189.082258,0 L189.082258,34.8388517 C189.082258,35.7814614 189.223543,36.5072708 189.506115,37.01628 C189.788686,37.5252892 190.14661,37.8834808 190.579886,38.090855 C191.013162,38.2982291 191.512371,38.4207683 192.077514,38.4584727 L192.473114,38.4584727 L192.473114,39.5896043 L173.258261,39.5896043 L173.258261,38.4584727 Z" id="Path"></path>
                </g>
                <g id="panic" transform="translate(34.9791, 45.4972)" fill-rule="nonzero">
                    <path d="M0,39.8723871 C0.0376761813,39.8723871 0.0565142719,39.8723871 0.0565142719,39.8723871 C0.0565142719,39.8723871 0.0753523625,39.853535 0.113028544,39.8158306 C0.715847444,39.665013 1.24331398,39.467065 1.69542816,39.2219865 C2.14754233,38.976908 2.54314224,38.5715859 2.88222787,38.0060201 C3.2213135,37.4404543 3.39085631,36.6675144 3.39085631,35.6872004 L3.39085631,5.59910117 C3.39085631,4.61878716 3.2213135,3.84584727 2.88222787,3.2802815 C2.54314224,2.71471572 2.14754233,2.30939358 1.69542816,2.06431508 C1.24331398,1.81923658 0.715847444,1.62128856 0.113028544,1.47047102 C0.0753523625,1.43276663 0.0565142719,1.41391444 0.0565142719,1.41391444 C0.0565142719,1.41391444 0.0376761813,1.41391444 0,1.41391444 L0,0.848348663 L15.8239961,0.848348663 L15.8239961,4.92042224 C16.841253,3.37454246 18.0374718,2.16800214 19.4126524,1.30080128 C20.787833,0.433600428 22.2666231,0 23.8490227,0 C26.0719174,0 28.0028217,0.67867893 29.6417356,2.03603679 C31.2806495,3.39339465 32.5333825,5.23148342 33.3999347,7.5503031 C34.2664869,9.86912278 34.699763,12.4235949 34.699763,15.2137194 C34.699763,18.0038438 34.2664869,20.5111854 33.3999347,22.7357442 C32.5333825,24.9603029 31.2806495,26.7229829 29.6417356,28.0237842 C28.0028217,29.3245854 26.0719174,29.9749861 23.8490227,29.9749861 C22.2666231,29.9749861 20.787833,29.5413857 19.4126524,28.6741848 C18.0374718,27.8069839 16.841253,26.6004436 15.8239961,25.0545638 L15.8239961,35.6872004 C15.8239961,36.6675144 15.993539,37.4404543 16.3326246,38.0060201 C16.6717102,38.5715859 17.0673101,38.976908 17.5194243,39.2219865 C17.9715385,39.467065 18.499005,39.665013 19.1018239,39.8158306 C19.1395001,39.853535 19.1583382,39.8723871 19.1583382,39.8723871 C19.1583382,39.8723871 19.1771763,39.8723871 19.2148525,39.8723871 L19.2148525,40.4379529 L0,40.4379529 L0,39.8723871 Z M18.9322811,25.2242336 C19.4597476,25.2242336 19.958957,24.8471897 20.4299093,24.093102 C20.9008616,23.3390143 21.2776234,22.2078828 21.5601947,20.6997074 C21.8427661,19.191532 21.9840518,17.3628693 21.9840518,15.2137194 C21.9840518,12.8383431 21.8521851,10.8494368 21.5884519,9.24700042 C21.3247186,7.64456406 20.9667949,6.44744984 20.5146807,5.65565775 C20.0625665,4.86386567 19.5539381,4.46796962 18.9887954,4.46796962 C18.5366812,4.46796962 18.0657289,4.90157005 17.5759386,5.76877091 C17.0861482,6.63597176 16.6717102,7.88021647 16.3326246,9.50150502 C15.993539,11.1227936 15.8239961,13.026865 15.8239961,15.2137194 C15.8239961,17.2497561 15.993539,19.0312883 16.3326246,20.5583159 C16.6717102,22.0853435 17.0767292,23.2447534 17.5476814,24.0365454 C18.0186337,24.8283375 18.4801669,25.2242336 18.9322811,25.2242336 Z" id="Shape"></path>
                    <path d="M48.6583811,29.9749861 C47.0006291,29.9749861 45.3993914,29.6922032 43.854668,29.1266374 C42.3099445,28.5610716 41.0289544,27.6655925 40.0116975,26.4402 C38.9944406,25.2148075 38.4858121,23.6406494 38.4858121,21.7177258 C38.4858121,19.6062802 39.1922405,17.4759825 40.6050973,15.3268325 C42.0179541,13.1776826 44.061887,11.3301677 46.7368958,9.78428791 C49.4119047,8.23840812 52.5390278,7.2957985 56.118265,6.95645903 C56.0052364,5.67450994 55.8545317,4.71304813 55.6661508,4.07207358 C55.4777699,3.43109904 55.1575224,2.95036813 54.7054082,2.62988085 C54.253294,2.30939358 53.5939608,2.14914995 52.7274087,2.14914995 C51.5594471,2.14914995 50.2596188,2.49791551 48.8279239,3.19544663 C47.396229,3.89297775 45.9927913,5.01468321 44.6176107,6.56056299 C43.24243,8.10644278 42.1027256,10.1047752 41.1984972,12.5555602 L39.2204977,12.5555602 L40.9159258,2.60160257 C41.1419829,2.5261938 41.3774591,2.43193283 41.6223542,2.31881968 C41.8672494,2.20570652 42.1215636,2.11144556 42.3852969,2.03603679 C44.1560774,1.43276663 46.1623341,0.961461818 48.4040669,0.622122353 C50.6457997,0.282782888 52.6143801,0.113113155 54.3098083,0.113113155 C56.8341124,0.113113155 59.1888738,0.471304813 61.3740923,1.18768813 C63.5593108,1.90407144 65.3395104,3.06348128 66.714691,4.66591764 C68.0898716,6.26835401 68.7774619,8.37037347 68.7774619,10.971976 L68.7774619,24.0365454 C68.7774619,24.1496586 68.7774619,24.2627718 68.7774619,24.3758849 C68.7774619,24.4889981 68.7774619,24.6021112 68.7774619,24.7152244 C68.8151381,25.5447208 68.8999095,26.1574171 69.0317761,26.5533131 C69.1636428,26.9492092 69.3614427,27.1471572 69.625176,27.1471572 C69.9265854,27.1471572 70.1997377,26.930357 70.4446329,26.4967566 C70.6895281,26.0631561 70.9250042,25.3939033 71.1510613,24.4889981 L73.0160323,25.2807901 C72.6392705,26.5627392 72.2248325,27.514775 71.7727183,28.1368973 C71.3206041,28.7590197 70.5764995,29.2208984 69.5404046,29.5225335 C68.5043096,29.8241685 66.9501671,29.9749861 64.8779771,29.9749861 C62.8434633,29.9749861 61.1386161,29.7110554 59.7634355,29.183194 C58.3882549,28.6553326 57.4180932,27.8635405 56.8529505,26.8078177 C56.1371031,27.9012449 55.1104271,28.7024631 53.7729227,29.2114723 C52.4354183,29.7204815 50.7305711,29.9749861 48.6583811,29.9749861 Z M53.8576941,26.9209309 C54.2344559,26.9209309 54.6112177,26.638148 54.9879795,26.0725822 C55.3647414,25.5070165 55.6849889,24.6115373 55.9487222,23.3861448 C56.2124554,22.1607523 56.3443221,20.6054464 56.3443221,18.7202272 L56.3443221,12.3858905 C56.3443221,11.6695072 56.334903,10.9908282 56.3160649,10.3498537 C56.2972268,9.70887914 56.2689697,9.08675679 56.2312935,8.48348663 C55.1763605,8.78512171 54.3098083,9.64289647 53.631637,11.0568109 C52.9534658,12.4707253 52.4730944,14.1108661 52.1905231,15.9772331 C51.9079517,17.8436002 51.766666,19.6439846 51.766666,21.3783863 C51.766666,23.3390143 51.9833041,24.7529288 52.4165802,25.6201296 C52.8498563,26.4873305 53.3302276,26.9209309 53.8576941,26.9209309 Z" id="Shape"></path>
                    <path d="M108.224265,24.3758849 C108.224265,25.3184945 108.337294,26.05373 108.563351,26.5815914 C108.789408,27.1094528 109.109655,27.4676445 109.524093,27.6561664 C109.938531,27.8446883 110.465998,27.9578015 111.106493,27.9955059 L111.615121,27.9955059 L111.615121,29.1266374 L93.5305543,29.1266374 L93.5305543,27.9955059 C93.6059067,27.9955059 93.6906781,27.9860798 93.7848685,27.9672276 C93.879059,27.9483754 93.9638304,27.9389493 94.0391828,27.9389493 C94.5666493,27.8635405 94.9528302,27.7410013 95.1977253,27.5713315 C95.4426205,27.4016618 95.6027443,27.0811745 95.6780967,26.6098697 C95.753449,26.1385649 95.7911252,25.3939033 95.7911252,24.3758849 L95.7911252,10.8023063 C95.7911252,8.95479144 95.6686776,7.56915529 95.4237824,6.64539786 C95.1788873,5.72164042 94.8586397,5.10894417 94.4630398,4.80730909 C94.0674399,4.50567401 93.5870686,4.35485647 93.0219259,4.35485647 C92.3060784,4.35485647 91.6938405,4.57165668 91.185212,5.00525711 C90.6765836,5.43885754 90.2715646,6.22122353 89.9701552,7.35235508 C89.6687457,8.48348663 89.518041,10.0482186 89.518041,12.046551 L89.518041,24.3758849 C89.518041,25.3561989 89.5839743,26.0914344 89.715841,26.5815914 C89.8477076,27.0717484 90.0455076,27.4110879 90.3092408,27.5996098 C90.5729741,27.7881318 90.9308978,27.9012449 91.383012,27.9389493 C91.4583643,27.9766537 91.5242977,27.9955059 91.5808119,27.9955059 C91.6373262,27.9955059 91.7032595,27.9955059 91.7786119,27.9955059 L91.7786119,29.1266374 L73.6940449,29.1266374 L73.6940449,27.9955059 L74.0331305,27.9955059 C74.6359494,27.9200971 75.1445779,27.7881318 75.5590159,27.5996098 C75.9734538,27.4110879 76.3313776,27.0623223 76.632787,26.5533131 C76.9341965,26.0443039 77.0849012,25.3184945 77.0849012,24.3758849 L77.0849012,5.59910117 C77.0849012,4.61878716 76.9247774,3.86469946 76.6045299,3.33683807 C76.2842823,2.80897668 75.8981015,2.46021112 75.4459873,2.29054139 C74.9938731,2.12087166 74.4664066,2.0171846 73.8635877,1.97948021 C73.8259115,1.97948021 73.7976544,1.97948021 73.7788163,1.97948021 C73.7599782,1.97948021 73.7317211,1.97948021 73.6940449,1.97948021 L73.6940449,0.848348663 L89.518041,0.848348663 L89.518041,4.46796962 C90.1585361,3.03520299 91.2040501,1.93234973 92.6545831,1.15940984 C94.1051161,0.386469946 95.7157728,0 97.4865534,0 C99.2950101,0 101.018695,0.339339465 102.657609,1.0180184 C104.296523,1.69669733 105.634028,2.75242011 106.670123,4.18518674 C107.706218,5.61795337 108.224265,7.39005946 108.224265,9.50150502 L108.224265,24.3758849 Z" id="Path"></path>
                    <path d="M112.575202,27.9955059 L112.914287,27.9955059 C113.47943,27.9578015 113.978639,27.8446883 114.411916,27.6561664 C114.845192,27.4676445 115.212534,27.1094528 115.513944,26.5815914 C115.815353,26.05373 115.966058,25.3184945 115.966058,24.3758849 L115.966058,5.59910117 C115.966058,4.61878716 115.805934,3.86469946 115.485687,3.33683807 C115.165439,2.80897668 114.779258,2.46021112 114.327144,2.29054139 C113.87503,2.12087166 113.347563,2.0171846 112.744744,1.97948021 C112.707068,1.97948021 112.678811,1.97948021 112.659973,1.97948021 C112.641135,1.97948021 112.612878,1.97948021 112.575202,1.97948021 L112.575202,0.848348663 L128.399198,0.848348663 L128.399198,24.3758849 C128.399198,25.3184945 128.540483,26.0443039 128.823055,26.5533131 C129.105626,27.0623223 129.46355,27.420514 129.896826,27.6278881 C130.330102,27.8352622 130.829312,27.9578015 131.394454,27.9955059 L131.790054,27.9955059 L131.790054,29.1266374 L112.575202,29.1266374 L112.575202,27.9955059 Z" id="Shape"></path>
                    <path d="M148.388187,29.9749861 C145.336417,29.9749861 142.623732,29.3905681 140.250132,28.2217322 C137.876533,27.0528962 136.011562,25.3561989 134.655219,23.1316402 C133.298877,20.9070815 132.620705,18.2677745 132.620705,15.2137194 C132.620705,12.2350729 133.421324,9.58633989 135.022562,7.26752021 C136.6238,4.94870053 138.724247,3.15774224 141.323903,1.89464535 C143.92356,0.631548449 146.673921,0 149.574987,0 C151.232739,0 152.862234,0.216800214 154.463472,0.650400641 C156.064709,1.08400107 157.562337,1.73440171 158.956356,2.60160257 L160.651784,12.5555602 L158.673785,12.5555602 C158.297023,10.7080453 157.694204,8.97364363 156.865328,7.35235508 C156.036452,5.73106652 155.085129,4.42083914 154.011357,3.42167294 C152.937586,2.42250674 151.835558,1.92292364 150.705272,1.92292364 C149.461958,1.92292364 148.416444,2.46963722 147.56873,3.56306438 C146.721016,4.65649155 146.08994,6.07040599 145.675502,7.8048077 C145.261064,9.53920941 145.053845,11.3490199 145.053845,13.2342391 C145.053845,15.4965022 145.355255,17.6173739 145.958074,19.5968541 C146.560893,21.5763343 147.446283,23.1787707 148.614244,24.4041632 C149.782206,25.6295557 151.138549,26.242252 152.683272,26.242252 C153.88891,26.242252 155.047452,25.9217647 156.1589,25.2807901 C157.270347,24.6398156 158.202833,23.7349104 158.956356,22.5660744 L160.538756,23.7537626 C159.220089,26.0914344 157.524661,27.712723 155.452471,28.6176282 C153.380281,29.5225335 151.02552,29.9749861 148.388187,29.9749861 Z" id="Path"></path>
                </g>
                <g id="studio" transform="translate(42.24, 73.4489)" fill-rule="nonzero">
                    <path d="M15.9370247,40.4379529 C12.9229302,40.4379529 10.0689594,40.0891874 7.37511248,39.3916562 C4.68126552,38.6941251 2.73152314,37.6478284 1.52588534,36.2527662 L0,25.563573 L1.97799952,25.563573 C3.07060877,28.4668107 4.39869416,30.8893174 5.96225569,32.8310932 C7.52581721,34.7728691 9.11763587,36.1867835 10.7377117,37.0728366 C12.3577875,37.9588896 13.8459966,38.4019161 15.2023391,38.4019161 C16.0688913,38.4019161 16.8129959,38.288803 17.4346529,38.0625767 C18.0563099,37.8363504 18.5272621,37.4970109 18.8475097,37.0445583 C19.1677572,36.5921056 19.327881,36.0076877 19.327881,35.2913044 C19.327881,34.4995123 19.0453096,33.8019812 18.4801669,33.198711 C17.9150242,32.5954408 17.1615006,32.0393012 16.219596,31.530292 C15.2776915,31.0212828 13.8836728,30.3520299 12.0375399,29.5225335 C11.7738066,29.4094203 11.5006543,29.2963072 11.218083,29.183194 C10.9355116,29.0700808 10.6623593,28.9381155 10.398626,28.787298 C10.3232737,28.7495936 10.2290832,28.7024631 10.1160547,28.6459065 C10.0030261,28.5893499 9.90883568,28.5422195 9.83348331,28.5045151 C8.10037897,27.6750186 6.64984599,26.8455221 5.48188438,26.0160257 C4.31392276,25.1865292 3.39085631,24.2250674 2.71268505,23.1316402 C2.03451379,22.038213 1.69542816,20.7751161 1.69542816,19.3423495 C1.69542816,17.3440171 2.32650419,15.6850242 3.58865627,14.3653707 C4.85080834,13.0457172 6.49914127,12.0748293 8.53365506,11.4527069 C10.5681688,10.8305846 12.8099016,10.5195234 15.2588534,10.5195234 C17.1803387,10.5195234 19.2431096,10.7268975 21.4471662,11.1416458 C23.6512228,11.556394 25.5821271,12.1596642 27.2398791,12.9514562 L28.9353072,22.9054139 L26.9573077,22.9054139 C26.1284317,20.7939683 25.15827,18.9558796 24.0468227,17.3911476 C22.9353754,15.8264156 21.7203185,14.6198753 20.4016522,13.7715266 C19.0829858,12.923178 17.7266433,12.4990036 16.3326246,12.4990036 C15.6544533,12.4990036 15.0610535,12.6403951 14.552425,12.923178 C14.0437966,13.2059608 13.6576157,13.5735786 13.3938824,14.0260312 C13.1301492,14.4784838 12.9982825,14.9686408 12.9982825,15.4965022 C12.9982825,16.4391119 13.3185301,17.2591822 13.9590252,17.9567134 C14.5995202,18.6542445 15.4283962,19.2575146 16.4456531,19.7665238 C17.46291,20.275533 18.8946049,20.8882293 20.7407378,21.6046126 C20.8537663,21.642317 20.9573758,21.6800214 21.0515663,21.7177258 C21.1457567,21.7554301 21.2493662,21.7931345 21.3623948,21.8308389 L22.5491945,22.2832915 C24.1315941,22.9619705 25.5067747,23.6877799 26.6747363,24.4607198 C27.842698,25.2336597 28.7940215,26.1856954 29.5287071,27.3168269 C30.2633926,28.4479585 30.6307354,29.7864642 30.6307354,31.3323439 C30.6307354,33.4060851 29.933726,35.1310607 28.5397073,36.5072708 C27.1456886,37.8834808 25.3372319,38.882647 23.1143372,39.5047694 C20.8914425,40.1268917 18.499005,40.4379529 15.9370247,40.4379529 Z" id="Path"></path>
                    <path d="M31.7606897,11.3113155 L55.9487981,11.3113155 L55.9487981,13.2907957 L31.7606897,13.2907957 L31.7606897,11.3113155 Z M31.7606897,11.3113155 C35.3399269,11.3113155 38.1938976,10.8965673 40.3226019,10.0670708 C42.4513061,9.23757433 44.0054486,8.00275572 44.9850293,6.36261497 C45.96461,4.72247422 46.5109146,2.60160257 46.6239432,0 L48.3193713,0 L48.3193713,11.3113155 L31.7606897,11.3113155 Z M57.5877119,35.5175307 C56.2690456,37.4404543 54.8279317,38.7601078 53.2643701,39.4764911 C51.7008086,40.1928744 49.694552,40.5510661 47.2456002,40.5510661 C45.2110864,40.5510661 43.3272773,40.0703352 41.594173,39.1088733 C39.8610687,38.1474115 38.476469,36.7806276 37.440374,35.0085215 C36.404279,33.2364154 35.8862315,31.2192308 35.8862315,28.9569677 L35.8862315,12.5555602 L48.3193713,12.5555602 L48.3193713,28.9569677 C48.3193713,31.4454571 48.7055522,33.3683807 49.4779139,34.7257386 C50.2502756,36.0830965 51.2015992,36.7617754 52.3318847,36.7617754 C52.9723797,36.7617754 53.6222939,36.5355491 54.281627,36.0830965 C54.9409602,35.6306438 55.5720362,34.9708171 56.1748551,34.1036162 L57.5877119,35.5175307 Z" id="Shape"></path>
                    <path d="M71.3765596,40.4379529 C69.6811314,40.4379529 68.0422176,40.051483 66.4598179,39.2785431 C64.8774183,38.5056032 63.5870091,37.4027499 62.5885903,35.9699833 C61.5901715,34.5372167 61.0909621,32.8593715 61.0909621,30.9364479 L61.0909621,16.062068 C61.0909621,15.1194584 60.9779336,14.3842229 60.7518765,13.8563615 C60.5258194,13.3285001 60.2055719,12.9703084 59.7911339,12.7817865 C59.3766959,12.5932646 58.8492293,12.4801514 58.2087342,12.4424471 C58.1333819,12.4424471 58.0486105,12.4424471 57.95442,12.4424471 C57.8602296,12.4424471 57.7754582,12.4424471 57.7001058,12.4424471 L57.7001058,11.3113155 L73.5241019,11.3113155 L73.5241019,29.6356466 C73.5241019,31.4077527 73.6277114,32.7745367 73.8349304,33.7359985 C74.0421494,34.6974603 74.3341398,35.3478609 74.7109016,35.6872004 C75.0876635,36.0265399 75.5209395,36.1962096 76.0107299,36.1962096 C76.4628441,36.1962096 76.8867011,35.9605572 77.282301,35.4892524 C77.6779009,35.0179476 78.0075675,34.2073033 78.2713008,33.0573196 C78.535034,31.9073358 78.6669007,30.3520299 78.6669007,28.3914019 L78.6669007,16.062068 C78.6669007,15.081754 78.6009674,14.3370924 78.4691007,13.8280832 C78.3372341,13.319074 78.1394341,12.9703084 77.8757009,12.7817865 C77.6119676,12.5932646 77.2540439,12.4801514 76.8019297,12.4424471 L76.4063298,12.4424471 L76.4063298,11.3113155 L91.1000405,11.3113155 L91.1000405,34.8388517 C91.1000405,35.8191658 91.2601643,36.5732535 91.5804118,37.1011148 C91.9006594,37.6289762 92.2868402,37.9777418 92.7389544,38.1474115 C93.1910686,38.3170813 93.7185351,38.4207683 94.321354,38.4584727 C94.3590302,38.4584727 94.3872873,38.4584727 94.4061254,38.4584727 C94.4249635,38.4584727 94.4532206,38.4584727 94.4908968,38.4584727 L94.4908968,39.5896043 L78.6669007,39.5896043 L78.6669007,36.0265399 C78.0264056,37.4970109 77.0562439,38.5998642 75.7564157,39.3350997 C74.4565874,40.0703352 72.9966354,40.4379529 71.3765596,40.4379529 Z" id="Path"></path>
                    <path d="M107.60149,40.4379529 C105.378596,40.4379529 103.447691,39.7875523 101.808778,38.486751 C100.169864,37.1859497 98.9171307,35.4232697 98.0505785,33.198711 C97.1840263,30.9741523 96.7507502,28.4668107 96.7507502,25.6766862 C96.7507502,22.8865617 97.1840263,20.3320896 98.0505785,18.0132699 C98.9171307,15.6944503 100.169864,13.8563615 101.808778,12.4990036 C103.447691,11.1416458 105.378596,10.4629668 107.60149,10.4629668 C109.18389,10.4629668 110.66268,10.8965673 112.037861,11.7637681 C113.413041,12.630969 114.60926,13.8375093 115.626517,15.3833891 L115.626517,4.75075251 C115.626517,3.7704385 115.456974,2.99749861 115.117889,2.43193283 C114.778803,1.86636706 114.383203,1.46104492 113.931089,1.21596642 C113.478975,0.970887914 112.93267,0.7540877 112.292175,0.565565775 C112.292175,0.565565775 112.282756,0.565565775 112.263918,0.565565775 C112.24508,0.565565775 112.235661,0.565565775 112.235661,0.565565775 L112.235661,0 L128.059657,0 L128.059657,40.4379529 L127.777086,40.4379529 L116.078631,34.7822952 C115.061374,36.5544013 113.81806,37.9400374 112.348689,38.9392036 C110.879318,39.9383698 109.296919,40.4379529 107.60149,40.4379529 Z M112.518232,35.6872004 C112.970346,35.6872004 113.431879,35.2913044 113.902832,34.4995123 C114.373784,33.7077202 114.778803,32.5483104 115.117889,31.0212828 C115.456974,29.4942552 115.626517,27.712723 115.626517,25.6766862 C115.626517,23.4898319 115.456974,21.5857604 115.117889,19.9644719 C114.778803,18.3431833 114.364365,17.0989386 113.874575,16.2317377 C113.384784,15.3645369 112.913832,14.9309365 112.461718,14.9309365 C111.896575,14.9309365 111.387947,15.3268325 110.935832,16.1186246 C110.483718,16.9104167 110.125795,18.1075309 109.862061,19.7099673 C109.598328,21.3124036 109.466461,23.3013099 109.466461,25.6766862 C109.466461,27.8258361 109.607747,29.6544988 109.890318,31.1626742 C110.17289,32.6708496 110.549652,33.8019812 111.020604,34.5560689 C111.491556,35.3101566 111.990766,35.6872004 112.518232,35.6872004 Z" id="Shape"></path>
                    <path d="M132.297544,38.4584727 L132.63663,38.4584727 C133.201773,38.4207683 133.700982,38.3076552 134.134258,38.1191332 C134.567534,37.9306113 134.934877,37.5724197 135.236286,37.0445583 C135.537696,36.5166969 135.688401,35.7814614 135.688401,34.8388517 L135.688401,16.062068 C135.688401,15.081754 135.528277,14.3276663 135.208029,13.7998049 C134.887782,13.2719435 134.501601,12.923178 134.049487,12.7535082 C133.597373,12.5838385 133.069906,12.4801514 132.467087,12.4424471 C132.429411,12.4424471 132.401154,12.4424471 132.382316,12.4424471 C132.363478,12.4424471 132.33522,12.4424471 132.297544,12.4424471 L132.297544,11.3113155 L148.12154,11.3113155 L148.12154,34.8388517 C148.12154,35.7814614 148.262826,36.5072708 148.545397,37.01628 C148.827969,37.5252892 149.185893,37.8834808 149.619169,38.090855 C150.052445,38.2982291 150.551654,38.4207683 151.116797,38.4584727 L151.512397,38.4584727 L151.512397,39.5896043 L132.297544,39.5896043 L132.297544,38.4584727 Z" id="Shape"></path>
                    <path d="M169.596936,40.4379529 C166.394461,40.4379529 163.568747,39.853535 161.119795,38.684699 C158.670844,37.5158631 156.758777,35.8191658 155.383597,33.594607 C154.008416,31.3700483 153.320826,28.7307414 153.320826,25.6766862 C153.320826,22.5849266 154.008416,19.8984892 155.383597,17.6173739 C156.758777,15.3362586 158.680263,13.5735786 161.148053,12.3293339 C163.615842,11.0850892 166.432137,10.4629668 169.596936,10.4629668 C172.950116,10.4629668 175.841763,11.0756631 178.271877,12.3010556 C180.701991,13.5264481 182.557543,15.279702 183.838533,17.5608173 C185.119523,19.8419326 185.760018,22.5472222 185.760018,25.6766862 C185.760018,28.7307414 185.081847,31.3700483 183.725504,33.594607 C182.369162,35.8191658 180.475933,37.5158631 178.04582,38.684699 C175.615706,39.853535 172.799412,40.4379529 169.596936,40.4379529 Z M169.540422,38.684699 C170.406974,38.684699 171.085145,38.3830639 171.574936,37.7797938 C172.064726,37.1765236 172.432069,35.941705 172.676964,34.075338 C172.921859,32.2089709 173.044307,29.4094203 173.044307,25.6766862 C173.044307,21.9816565 172.91244,19.1632537 172.648707,17.2214779 C172.384974,15.279702 172.008212,13.9506225 171.518421,13.2342391 C171.028631,12.5178558 170.369298,12.1596642 169.540422,12.1596642 C168.711546,12.1596642 168.052213,12.5272819 167.562422,13.2625174 C167.072632,13.9977529 166.69587,15.3362586 166.432137,17.2780344 C166.168404,19.2198103 166.036537,22.0193608 166.036537,25.6766862 C166.036537,29.4094203 166.158985,32.2089709 166.40388,34.075338 C166.648775,35.941705 167.016118,37.1765236 167.505908,37.7797938 C167.995698,38.3830639 168.67387,38.684699 169.540422,38.684699 Z" id="Shape"></path>
                </g>
                <ellipse id="Oval" cx="211.835035" cy="98.4409467" rx="6.14175669" ry="13.982956"></ellipse>
            </g>
        </g>
    </g>
</svg>