<?xml version="1.0" encoding="UTF-8"?>
<svg width="743px" height="373px" viewBox="0 0 743 373" version="1.1" xmlns="http://www.w3.org/2000/svg" xmlns:xlink="http://www.w3.org/1999/xlink">
    <title>Group 4</title>
    <g id="Page-1" stroke="none" stroke-width="1" fill="none" fill-rule="evenodd">
        <g id="Large" transform="translate(-195, -374)" fill="#DF8197">
            <g id="Group-4" transform="translate(195.181, 374.591)">
                <g id="Mateusz-Cabizza-is" transform="translate(132.0548, 0)" fill-rule="nonzero">
                    <polygon id="Path" points="17.1939331 6.22540658 15.4168652 9.7588387 10.4741024 18.7501615 5.5840847 9.7696835 3.78582014 6.17315437 3.22879191 6.17315437 3.22879191 23.4089878 0 23.4089878 0 1.38813405 4.42763496 1.38813405 10.432202 12.7352426 10.5371994 12.7352426 16.5422594 1.38813405 20.9797533 1.38813405 20.9797533 23.4089878 17.7514543 23.4089878 17.7514543 6.22540658"></polygon>
                    <path d="M40.1610494,23.4089878 C39.2218242,23.4089878 38.5015489,23.167116 38.0002235,22.6833723 C37.4988981,22.1996286 37.1991052,21.5336595 37.1008448,20.6854649 L36.9431023,20.6854649 C36.6138148,21.6808858 36.031975,22.4467586 35.1975829,22.9830831 C34.3631907,23.5194076 33.3081234,23.7875699 32.0323809,23.7875699 C30.3635966,23.7875699 29.0349447,23.3494236 28.046425,22.4731311 C27.0579053,21.5968387 26.5636454,20.3944628 26.5636454,18.8660037 C26.5636454,15.6480566 28.9333979,14.039083 33.672903,14.039083 L36.8593016,14.039083 L36.8593016,12.6928493 C36.8593016,11.5781356 36.5577833,10.7368422 35.9547469,10.1689692 C35.3517104,9.6010962 34.4612869,9.31715969 33.2834761,9.31715969 C32.2739241,9.31715969 31.4309054,9.51351625 30.7544201,9.90622936 C30.0779348,10.2989425 29.5117871,10.8633649 29.055977,11.5994966 L27.0684214,10.0008749 C27.5521651,9.06132106 28.3513938,8.28485001 29.4661075,7.6714617 C30.5808212,7.0580734 31.9479229,6.75137924 33.5674127,6.75137924 C35.5937466,6.75137924 37.1887534,7.25089718 38.352433,8.24993305 C39.5161126,9.24896892 40.0979524,10.6528772 40.0979524,12.461658 L40.0979524,19.6966166 C40.0979524,20.0052003 40.2066468,20.2681867 40.4240357,20.4855756 C40.6414246,20.7029645 40.904411,20.8116589 41.2129947,20.8116589 L42.211702,20.8116589 L42.211702,23.4089878 L40.1610494,23.4089878 Z M32.9157389,21.3583353 C34.0583862,21.3583353 35.0013085,21.0971564 35.7445057,20.5747987 C36.487703,20.0524409 36.8593016,19.3881971 36.8593016,18.5820672 L36.8593016,16.1424807 L33.7148033,16.1424807 C32.4249297,16.1424807 31.4592498,16.3370298 30.8177636,16.726128 C30.1762774,17.1152262 29.8555343,17.6812917 29.8555343,18.4243247 L29.8555343,19.0764913 C29.8555343,19.812623 30.1271472,20.3769633 30.670373,20.7695121 C31.2135987,21.1620609 31.962054,21.3583353 32.9157389,21.3583353 Z" id="Shape"></path>
                    <path d="M51.6759635,18.2246818 C51.6759635,18.9608135 51.7968994,19.5146376 52.0387712,19.886154 C52.2806431,20.2576705 52.6294841,20.4977349 53.0852942,20.6063472 C53.5411043,20.7149595 54.2001722,20.7692656 55.0624979,20.7692656 L56.2504961,20.7692656 L56.2504961,23.4089878 L54.8308136,23.4089878 C53.3585502,23.4089878 52.1649652,23.2477126 51.2500587,22.925162 C50.3351522,22.6026114 49.6376345,22.0574961 49.1575058,21.2898159 C48.677377,20.5221357 48.4373127,19.4933588 48.4373127,18.2034852 L48.4373127,9.7696835 L45.0300745,9.7696835 L45.0300745,7.12996126 L48.4373127,7.12996126 L48.4373127,1.38813405 L51.6759635,1.38813405 L51.6759635,7.12996126 L56.2085958,7.12996126 L56.2085958,9.7696835 L51.6759635,9.7696835 L51.6759635,18.2246818 Z" id="Path"></path>
                    <path d="M67.5556081,23.7875699 C65.9361183,23.7875699 64.53221,23.4422617 63.3438832,22.7516452 C62.1555563,22.0610288 61.2493585,21.0777672 60.6252897,19.8018604 C60.0012209,18.5259536 59.6891865,17.0291251 59.6891865,15.3113749 C59.6891865,13.5867235 60.006479,12.079461 60.6410639,10.7895874 C61.2756489,9.49971378 62.1660725,8.50421068 63.3123347,7.80307811 C64.4585969,7.10194553 65.7923426,6.75137924 67.3135719,6.75137924 C68.7999664,6.75137924 70.1057786,7.09142936 71.2310085,7.77152961 C72.3562383,8.45162985 73.2238221,9.39808488 73.8337598,10.6108947 C74.4436975,11.8237045 74.7486663,13.2222726 74.7486663,14.8065989 L74.7486663,16.0685389 L63.0017791,16.0685389 L63.0017791,16.6679605 C63.0017791,17.9929975 63.4154424,19.0691793 64.242769,19.8965059 C65.0700956,20.7238325 66.1917927,21.1374958 67.6078603,21.1374958 C68.6315434,21.1374958 69.5254998,20.9131235 70.2897293,20.4643789 C71.0539589,20.0156344 71.6743306,19.3847465 72.1508444,18.5717153 L74.2330455,20.3275866 C73.6651725,21.3723021 72.8063796,22.2101448 71.6566667,22.8411148 C70.5069539,23.4720848 69.1399344,23.7875699 67.5556081,23.7875699 Z M67.3239238,9.25406269 C66.4967615,9.25406269 65.7554539,9.44516116 65.1000009,9.82735811 C64.4445479,10.2095551 63.9309811,10.7388962 63.5593003,11.4153815 C63.1876195,12.0918668 63.0017791,12.8542067 63.0017791,13.7024013 L63.0017791,13.9340857 L71.4148771,13.9340857 L71.4148771,13.6186006 C71.4148771,12.3145959 71.0415531,11.2611718 70.2949053,10.4583281 C69.5482574,9.6554845 68.5579302,9.25406269 67.3239238,9.25406269 Z" id="Shape"></path>
                    <path d="M89.6284252,20.6539164 L89.4815275,20.6539164 C89.0819132,21.6072727 88.5087821,22.3678873 87.7621342,22.9357603 C87.0154864,23.5036334 86.0251592,23.7875699 84.7911527,23.7875699 C83.108566,23.7875699 81.7660294,23.2442619 80.7635429,22.1576461 C79.7610564,21.0710303 79.2598132,19.5531695 79.2598132,17.6040636 L79.2598132,7.12996126 L82.498464,7.12996126 L82.498464,17.0992876 C82.498464,18.4243247 82.7929167,19.4216352 83.381822,20.0912193 C83.9707274,20.7608034 84.836668,21.0955954 85.9796439,21.0955954 C86.9819661,21.0955954 87.8406768,20.846658 88.5557762,20.3487832 C89.2708756,19.8509085 89.6284252,19.1428746 89.6284252,18.2246818 L89.6284252,7.12996126 L92.867569,7.12996126 L92.867569,23.4089878 L89.6284252,23.4089878 L89.6284252,20.6539164 Z" id="Path"></path>
                    <path d="M105.139647,23.7875699 C103.450159,23.7875699 101.96738,23.5106167 100.691308,22.9567105 C99.4152373,22.4028043 98.3636206,21.6315913 97.5364583,20.6430716 L99.5452106,18.844807 C100.295145,19.6581668 101.127565,20.2681867 102.042472,20.6748666 C102.957378,21.0815465 104.007352,21.2848864 105.192392,21.2848864 C106.384005,21.2848864 107.326846,21.0780137 108.020913,20.6642682 C108.71498,20.2505228 109.062013,19.6405851 109.062013,18.8344552 C109.062013,18.1755516 108.839448,17.7005988 108.394319,17.4095967 C107.949189,17.1185946 107.309428,16.9134472 106.475036,16.7941545 L103.898904,16.4052206 C102.868319,16.251093 101.965654,16.0268029 101.190909,15.7323502 C100.416163,15.4378975 99.7641604,14.9751862 99.2349015,14.3442162 C98.7056425,13.7132461 98.441013,12.8683378 98.441013,11.8094913 C98.441013,10.1900016 99.0596594,8.94211045 100.296952,8.06581797 C101.534245,7.18952549 103.201057,6.75137924 105.29739,6.75137924 C108.178819,6.75137924 110.404796,7.61025432 111.97532,9.32800449 L110.103114,11.2416183 C109.612469,10.6737452 108.967532,10.2005177 108.168303,9.82193571 C107.369075,9.44335369 106.373489,9.25406269 105.181547,9.25406269 C104.031999,9.25406269 103.152256,9.44861178 102.542318,9.83770996 C101.93238,10.2268081 101.627412,10.7894231 101.627412,11.5255548 C101.627412,12.1916882 101.853509,12.670256 102.305704,12.961258 C102.7579,13.2522601 103.394128,13.4572432 104.214389,13.5762073 L106.780169,13.9656342 C107.831786,14.1197617 108.744967,14.3440519 109.519713,14.6385045 C110.294459,14.9329572 110.942928,15.3956686 111.465122,16.0266386 C111.987315,16.6576086 112.248412,17.5023526 112.248412,18.5608705 C112.248412,20.1944913 111.613991,21.4740131 110.34515,22.3994358 C109.076309,23.3248585 107.341141,23.7875699 105.139647,23.7875699 Z" id="Path"></path>
                    <polygon id="Path" points="117.022791 23.4089878 117.022791 20.4961739 127.04437 9.7696835 117.35898 9.7696835 117.35898 7.12996126 130.672448 7.12996126 130.672448 10.0427752 120.650869 20.7692656 130.987933 20.7692656 130.987933 23.4089878"></polygon>
                    <path d="M157.78307,23.7875699 C155.048866,23.7875699 152.996406,22.8130991 151.62569,20.8641576 C150.254973,18.9152161 149.569615,16.0933505 149.569615,12.3985609 C149.569615,8.70377138 150.254973,5.88190584 151.62569,3.93296432 C152.996406,1.9840228 155.048866,1.00955204 157.78307,1.00955204 C159.731847,1.00955204 161.258334,1.48450486 162.362532,2.43441051 C163.466729,3.38431617 164.313281,4.68659557 164.902186,6.34124873 L161.915923,7.39270112 C161.516309,6.22902151 161.011533,5.34221286 160.401595,4.73227517 C159.791658,4.12233748 158.9083,3.81736864 157.751521,3.81736864 C156.20203,3.81736864 155.043444,4.40980677 154.275764,5.59468303 C153.508083,6.77955929 153.124243,8.43413029 153.124243,10.558396 L153.124243,14.2387259 C153.124243,16.3629916 153.508083,18.0175626 154.275764,19.2024389 C155.043444,20.3873151 156.20203,20.9797533 157.751521,20.9797533 C158.9083,20.9797533 159.791658,20.6747844 160.401595,20.0648467 C161.011533,19.454909 161.516309,18.5681004 161.915923,17.4044208 L164.902186,18.4558732 C164.313281,20.1105263 163.466729,21.4128057 162.362532,22.3627114 C161.258334,23.312617 159.731847,23.7875699 157.78307,23.7875699 Z" id="Path"></path>
                    <path d="M182.127379,23.4089878 C181.188154,23.4089878 180.467879,23.167116 179.966553,22.6833723 C179.465228,22.1996286 179.165435,21.5336595 179.067174,20.6854649 L178.909432,20.6854649 C178.580144,21.6808858 177.998305,22.4467586 177.163912,22.9830831 C176.32952,23.5194076 175.274453,23.7875699 173.99871,23.7875699 C172.329926,23.7875699 171.001274,23.3494236 170.012755,22.4731311 C169.024235,21.5968387 168.529975,20.3944628 168.529975,18.8660037 C168.529975,15.6480566 170.899727,14.039083 175.639233,14.039083 L178.825631,14.039083 L178.825631,12.6928493 C178.825631,11.5781356 178.524113,10.7368422 177.921076,10.1689692 C177.31804,9.6010962 176.427616,9.31715969 175.249806,9.31715969 C174.240254,9.31715969 173.397235,9.51351625 172.72075,9.90622936 C172.044264,10.2989425 171.478117,10.8633649 171.022307,11.5994966 L169.034751,10.0008749 C169.518495,9.06132106 170.317723,8.28485001 171.432437,7.6714617 C172.547151,7.0580734 173.914252,6.75137924 175.533742,6.75137924 C177.560076,6.75137924 179.155083,7.25089718 180.318763,8.24993305 C181.482442,9.24896892 182.064282,10.6528772 182.064282,12.461658 L182.064282,19.6966166 C182.064282,20.0052003 182.172976,20.2681867 182.390365,20.4855756 C182.607754,20.7029645 182.870741,20.8116589 183.179324,20.8116589 L184.178032,20.8116589 L184.178032,23.4089878 L182.127379,23.4089878 Z M174.882068,21.3583353 C176.024716,21.3583353 176.967638,21.0971564 177.710835,20.5747987 C178.454033,20.0524409 178.825631,19.3881971 178.825631,18.5820672 L178.825631,16.1424807 L175.681133,16.1424807 C174.391259,16.1424807 173.425579,16.3370298 172.784093,16.726128 C172.142607,17.1152262 171.821864,17.6812917 171.821864,18.4243247 L171.821864,19.0764913 C171.821864,19.812623 172.093477,20.3769633 172.636703,20.7695121 C173.179928,21.1620609 173.928384,21.3583353 174.882068,21.3583353 Z" id="Shape"></path>
                    <path d="M188.142502,0.0630970023 L191.381646,0.0630970023 L191.381646,9.88503271 L191.539388,9.88503271 C192.036934,8.87548067 192.694113,8.10081709 193.510923,7.56104195 C194.327734,7.02126681 195.321593,6.75137924 196.492503,6.75137924 C198.44851,6.75137924 199.985596,7.48923625 201.10376,8.96495025 C202.221924,10.4406643 202.781007,12.5421724 202.781007,15.2694746 C202.781007,17.9967767 202.221924,20.0982849 201.10376,21.5739989 C199.985596,23.0497129 198.44851,23.7875699 196.492503,23.7875699 C195.321593,23.7875699 194.327734,23.5176823 193.510923,22.9779072 C192.694113,22.438132 192.036934,21.6634684 191.539388,20.6539164 L191.381646,20.6539164 L191.381646,23.4089878 L188.142502,23.4089878 L188.142502,0.0630970023 Z M195.167466,21.0847506 C196.478372,21.0847506 197.503616,20.683411 198.243198,19.8807316 C198.982781,19.0780523 199.352572,17.9897112 199.352572,16.6157082 L199.352572,13.9232409 C199.352572,12.5492379 198.982781,11.4608968 198.243198,10.6582175 C197.503616,9.85553815 196.478372,9.45419849 195.167466,9.45419849 C194.087587,9.45419849 193.186647,9.72055328 192.464647,10.2532629 C191.742646,10.7859725 191.381646,11.5396859 191.381646,12.5144031 L191.381646,18.024546 C191.381646,18.9992632 191.742646,19.7529766 192.464647,20.2856862 C193.186647,20.8183958 194.087587,21.0847506 195.167466,21.0847506 Z" id="Shape"></path>
                    <path d="M211.14107,0 L211.14107,3.88046564 L207.229056,3.88046564 L207.229056,0 L211.14107,0 Z M207.57609,7.12996126 L210.794037,7.12996126 L210.794037,23.4089878 L207.57609,23.4089878 L207.57609,7.12996126 Z" id="Shape"></path>
                    <polygon id="Path" points="216.398933 23.4089878 216.398933 20.4961739 226.420512 9.7696835 216.735122 9.7696835 216.735122 7.12996126 230.048589 7.12996126 230.048589 10.0427752 220.027011 20.7692656 230.364074 20.7692656 230.364074 23.4089878"></polygon>
                    <polygon id="Path" points="235.327745 23.4089878 235.327745 20.4961739 245.349324 9.7696835 235.663934 9.7696835 235.663934 7.12996126 248.977401 7.12996126 248.977401 10.0427752 238.955823 20.7692656 249.292886 20.7692656 249.292886 23.4089878"></polygon>
                    <path d="M267.306792,23.4089878 C266.367566,23.4089878 265.647291,23.167116 265.145966,22.6833723 C264.64464,22.1996286 264.344847,21.5336595 264.246587,20.6854649 L264.088844,20.6854649 C263.759557,21.6808858 263.177717,22.4467586 262.343325,22.9830831 C261.508933,23.5194076 260.453866,23.7875699 259.178123,23.7875699 C257.509339,23.7875699 256.180687,23.3494236 255.192167,22.4731311 C254.203647,21.5968387 253.709388,20.3944628 253.709388,18.8660037 C253.709388,15.6480566 256.07914,14.039083 260.818645,14.039083 L264.005044,14.039083 L264.005044,12.6928493 C264.005044,11.5781356 263.703526,10.7368422 263.100489,10.1689692 C262.497453,9.6010962 261.607029,9.31715969 260.429218,9.31715969 C259.419666,9.31715969 258.576648,9.51351625 257.900162,9.90622936 C257.223677,10.2989425 256.657529,10.8633649 256.201719,11.5994966 L254.214164,10.0008749 C254.697907,9.06132106 255.497136,8.28485001 256.61185,7.6714617 C257.726563,7.0580734 259.093665,6.75137924 260.713155,6.75137924 C262.739489,6.75137924 264.334496,7.25089718 265.498175,8.24993305 C266.661855,9.24896892 267.243695,10.6528772 267.243695,12.461658 L267.243695,19.6966166 C267.243695,20.0052003 267.352389,20.2681867 267.569778,20.4855756 C267.787167,20.7029645 268.050153,20.8116589 268.358737,20.8116589 L269.357444,20.8116589 L269.357444,23.4089878 L267.306792,23.4089878 Z M260.061481,21.3583353 C261.204128,21.3583353 262.147051,21.0971564 262.890248,20.5747987 C263.633445,20.0524409 264.005044,19.3881971 264.005044,18.5820672 L264.005044,16.1424807 L260.860546,16.1424807 C259.570672,16.1424807 258.604992,16.3370298 257.963506,16.726128 C257.32202,17.1152262 257.001277,17.6812917 257.001277,18.4243247 L257.001277,19.0764913 C257.001277,19.812623 257.272889,20.3769633 257.816115,20.7695121 C258.359341,21.1620609 259.107796,21.3583353 260.061481,21.3583353 Z" id="Shape"></path>
                    <path d="M291.588401,0 L291.588401,3.88046564 L287.676386,3.88046564 L287.676386,0 L291.588401,0 Z M288.02342,7.12996126 L291.241367,7.12996126 L291.241367,23.4089878 L288.02342,23.4089878 L288.02342,7.12996126 Z" id="Shape"></path>
                    <path d="M303.891931,23.7875699 C302.202443,23.7875699 300.719663,23.5106167 299.443592,22.9567105 C298.167521,22.4028043 297.115904,21.6315913 296.288742,20.6430716 L298.297494,18.844807 C299.047428,19.6581668 299.879849,20.2681867 300.794755,20.6748666 C301.709662,21.0815465 302.759635,21.2848864 303.944676,21.2848864 C305.136289,21.2848864 306.079129,21.0780137 306.773196,20.6642682 C307.467263,20.2505228 307.814297,19.6405851 307.814297,18.8344552 C307.814297,18.1755516 307.591732,17.7005988 307.146602,17.4095967 C306.701473,17.1185946 306.061712,16.9134472 305.22732,16.7941545 L302.651187,16.4052206 C301.620603,16.251093 300.717938,16.0268029 299.943192,15.7323502 C299.168447,15.4378975 298.516444,14.9751862 297.987185,14.3442162 C297.457926,13.7132461 297.193297,12.8683378 297.193297,11.8094913 C297.193297,10.1900016 297.811943,8.94211045 299.049236,8.06581797 C300.286529,7.18952549 301.953341,6.75137924 304.049673,6.75137924 C306.931103,6.75137924 309.15708,7.61025432 310.727604,9.32800449 L308.855397,11.2416183 C308.364752,10.6737452 307.719816,10.2005177 306.920587,9.82193571 C306.121358,9.44335369 305.125773,9.25406269 303.933831,9.25406269 C302.784283,9.25406269 301.90454,9.44861178 301.294602,9.83770996 C300.684664,10.2268081 300.379695,10.7894231 300.379695,11.5255548 C300.379695,12.1916882 300.605793,12.670256 301.057988,12.961258 C301.510183,13.2522601 302.146411,13.4572432 302.966672,13.5762073 L305.532453,13.9656342 C306.58407,14.1197617 307.497251,14.3440519 308.271997,14.6385045 C309.046742,14.9329572 309.695212,15.3956686 310.217405,16.0266386 C310.739599,16.6576086 311.000695,17.5023526 311.000695,18.5608705 C311.000695,20.1944913 310.366275,21.4740131 309.097434,22.3994358 C307.828592,23.3248585 306.093425,23.7875699 303.891931,23.7875699 Z" id="Path"></path>
                </g>
                <g id="Kernel" transform="translate(0, 0.5859)" fill-rule="nonzero">
                    <path d="M123.302059,115.020577 C124.528945,117.719727 126.03188,119.774761 127.810865,121.18568 C129.58985,122.596599 131.368835,123.578108 133.14782,124.130207 C134.926805,124.682306 136.797806,125.019699 138.760824,125.142388 C138.883513,125.142388 139.036874,125.142388 139.220906,125.142388 C139.404939,125.142388 139.5583,125.142388 139.680989,125.142388 L139.680989,128.823046 L73.7972023,128.823046 L73.7972023,125.142388 C73.9198909,125.142388 74.0732516,125.142388 74.2572846,125.142388 C74.4413175,125.142388 74.5946783,125.142388 74.7173669,125.142388 C76.3123189,125.019699 77.6005493,124.682306 78.5820583,124.130207 C79.5635672,123.578108 80.2076824,122.535255 80.514404,121.001647 C80.8211255,119.468039 80.5450761,117.290316 79.6862558,114.468478 L53.5535807,45.2720991 L51.5292185,47.1124284 L51.5292185,113.364281 C51.5292185,116.431496 52.019973,118.823924 53.0014819,120.541565 C53.9829908,122.259205 55.1792048,123.424747 56.5901239,124.03819 C58.001043,124.651633 59.6266672,125.019699 61.4669964,125.142388 L62.5711939,125.142388 L62.5711939,128.823046 L0,128.823046 L0,125.142388 C0.122688616,125.142388 0.245377231,125.142388 0.368065847,125.142388 C0.490754462,125.142388 0.613443078,125.142388 0.736131693,125.142388 C2.69914954,125.019699 4.41679016,124.651633 5.88905355,124.03819 C7.36131693,123.424747 8.58820309,122.289878 9.56971201,120.633581 C10.5512209,118.977285 11.0419754,116.554185 11.0419754,113.364281 L11.0419754,15.4587656 C11.0419754,12.2688616 10.5205488,9.81508924 9.47769555,8.09744863 C8.43484232,6.37980801 7.14661186,5.24493831 5.61300416,4.69283954 C4.07939647,4.14074077 2.3310837,3.80334708 0.368065847,3.68065847 C0.368065847,3.68065847 0.337393693,3.68065847 0.276049385,3.68065847 C0.214705077,3.68065847 0.122688616,3.68065847 0,3.68065847 L0,0 L62.5711939,0 L62.5711939,3.68065847 L61.8350622,3.68065847 C59.8720444,3.80334708 58.1544038,4.17141293 56.6821404,4.78485601 C55.209877,5.39829908 53.9829908,6.53316878 53.0014819,8.18946509 C52.019973,9.8457614 51.5292185,12.2688616 51.5292185,15.4587656 L51.5292185,38.6469139 L83.3669143,11.7781071 C85.8206866,9.56971201 87.4769829,7.88274355 88.3358032,6.7172017 C89.1946235,5.55165985 89.4706729,4.78485601 89.1639513,4.41679016 C88.8572298,4.04872431 88.090426,3.80334708 86.8635398,3.68065847 L86.311441,3.68065847 L86.311441,0 L118.33317,0 L118.33317,3.68065847 C118.210481,3.68065847 118.05712,3.68065847 117.873087,3.68065847 C117.689054,3.68065847 117.535694,3.68065847 117.413005,3.68065847 C115.081921,3.80334708 112.597477,4.14074077 109.959672,4.69283954 C107.321866,5.24493831 104.285323,6.28779155 100.850042,7.82139924 C97.4147607,9.35500694 93.9181352,11.4713856 90.3601654,14.1705351 L86.311441,17.6671606 L123.302059,115.020577 Z" id="Path"></path>
                    <path d="M182.361197,131.58354 C172.300731,131.58354 163.375134,129.620522 155.584407,125.694487 C147.79368,121.768451 141.628577,116.247463 137.089098,109.131524 C132.549619,102.015584 130.095847,93.8567909 129.727781,84.6551447 C129.727781,74.8400555 131.874832,66.0984916 136.168933,58.4304532 C140.463035,50.7624147 146.382761,44.7813447 153.928111,40.4872431 C161.47346,36.1931416 169.846958,34.0460908 179.048605,34.0460908 C187.268742,34.0460908 194.93678,35.7637314 202.05272,39.1990127 C209.16866,42.6342939 214.843008,47.5111664 219.075765,53.8296301 C223.308523,60.1480938 225.424901,67.3560499 225.424901,75.4534986 L188.434284,75.4534986 C188.80235,66.8652955 188.618317,59.9027165 187.882185,54.5657618 C187.146053,49.228807 186.041856,45.3947878 184.569592,43.0637041 C183.097329,40.7326204 181.502377,39.5670785 179.784736,39.5670785 C177.330964,39.5670785 175.306602,41.4994242 173.71165,45.3641156 C172.116698,49.228807 171.104517,54.5350896 170.675107,61.2829635 C170.245696,68.0308373 170.399057,75.4534986 171.135189,83.5509472 C171.871321,91.28033 173.4356,97.8441709 175.828028,103.24247 C178.220456,108.640769 181.134311,112.689493 184.569592,115.388643 C188.004874,118.087792 191.808221,119.437367 195.979634,119.437367 C200.76449,119.437367 205.303968,117.474349 209.59807,113.548314 C213.892171,109.622278 217.204764,104.960111 219.535848,99.5618115 L225.056835,102.874404 C223.829949,106.923128 221.928276,111.002525 219.351815,115.112594 C216.775354,119.222662 212.481252,122.995337 206.46951,126.430618 C200.457768,129.8659 192.421664,131.58354 182.361197,131.58354 Z M161.74951,69.0123462 L217.327453,69.0123462 L217.327453,75.4534986 L161.74951,75.4534986 L161.74951,69.0123462 Z" id="Shape"></path>
                    <path d="M283.576946,113.364281 C283.576946,116.554185 283.791651,118.977285 284.221061,120.633581 C284.650472,122.289878 285.294587,123.424747 286.153407,124.03819 C287.012227,124.651633 288.177769,125.019699 289.650033,125.142388 L290.938263,125.142388 L290.938263,128.823046 L232.047728,128.823046 L232.047728,125.142388 L233.151925,125.142388 C234.992254,125.019699 236.617879,124.651633 238.028798,124.03819 C239.439717,123.424747 240.635931,122.259205 241.61744,120.541565 C242.598949,118.823924 243.089703,116.431496 243.089703,113.364281 L243.089703,52.2653502 C243.089703,49.0754462 242.568276,46.6216739 241.525423,44.9040333 C240.48257,43.1863927 239.225012,42.051523 237.752748,41.4994242 C236.280485,40.9473254 234.562844,40.6099317 232.599826,40.4872431 C232.477138,40.4872431 232.385121,40.4872431 232.323777,40.4872431 C232.262433,40.4872431 232.170416,40.4872431 232.047728,40.4872431 L232.047728,36.8065847 L283.576946,36.8065847 L283.576946,113.364281 Z M298.667646,43.0637041 C295.477742,43.0637041 292.778592,44.9960498 290.570197,48.8607411 C288.361802,52.7254325 286.644162,58.3691088 285.417275,65.7917701 C284.190389,73.2144313 283.576946,82.2013724 283.576946,92.7525934 L275.111432,71.7728401 C276.215629,63.5527029 278.209319,56.5901239 281.092502,50.8851033 C283.975684,45.1800827 287.380293,40.9473254 291.306329,38.1868316 C295.232365,35.4263377 299.1584,34.0460908 303.084436,34.0460908 C307.010472,34.0460908 310.813819,35.2116327 314.494477,37.5427164 C318.175136,39.8738001 321.058318,42.8183268 323.144025,46.3762967 L327.376782,80.4223875 L319.831432,80.4223875 C316.150774,69.8711666 313.359608,62.1724559 311.457934,57.3262556 C309.556261,52.4800553 307.623915,48.8914133 305.660897,46.5603296 C303.697879,44.2292459 301.366795,43.0637041 298.667646,43.0637041 Z" id="Shape"></path>
                    <path d="M445.157314,113.364281 C445.157314,116.431496 445.52538,118.823924 446.261511,120.541565 C446.997643,122.259205 448.040496,123.424747 449.390071,124.03819 C450.739646,124.651633 452.457286,125.019699 454.542993,125.142388 L456.199289,125.142388 L456.199289,128.823046 L397.308754,128.823046 L397.308754,125.142388 C397.554131,125.142388 397.83018,125.111716 398.136902,125.050371 C398.443623,124.989027 398.719673,124.958355 398.96505,124.958355 C400.682691,124.712978 401.940249,124.31424 402.737725,123.762141 C403.535201,123.210042 404.056628,122.167189 404.302005,120.633581 C404.547382,119.099974 404.670071,116.676873 404.670071,113.364281 L404.670071,69.1963792 C404.670071,63.184637 404.271333,58.6758304 403.473857,55.6699593 C402.676381,52.6640882 401.633527,50.6703982 400.345297,49.6888893 C399.057066,48.7073804 397.492787,48.2166259 395.652457,48.2166259 C393.321374,48.2166259 391.327684,48.9220854 389.671387,50.3330045 C388.015091,51.7439236 386.696188,54.2897124 385.714679,57.9703708 C384.733171,61.6510293 384.242416,66.7426069 384.242416,73.2451035 L384.242416,113.364281 C384.242416,116.554185 384.457121,118.946613 384.886531,120.541565 C385.315941,122.136517 385.960057,123.240714 386.818877,123.854157 C387.677697,124.4676 388.843239,124.835666 390.315503,124.958355 C390.56088,125.081044 390.775585,125.142388 390.959618,125.142388 C391.143651,125.142388 391.358356,125.142388 391.603733,125.142388 L391.603733,128.823046 L332.713198,128.823046 L332.713198,125.142388 L333.817395,125.142388 C335.780413,124.897011 337.436709,124.4676 338.786284,123.854157 C340.135859,123.240714 341.301401,122.105845 342.28291,120.449548 C343.264419,118.793252 343.755173,116.431496 343.755173,113.364281 L343.755173,52.2653502 C343.755173,49.0754462 343.233746,46.6216739 342.190893,44.9040333 C341.14804,43.1863927 339.890482,42.051523 338.418218,41.4994242 C336.945955,40.9473254 335.228314,40.6099317 333.265296,40.4872431 C333.142608,40.4872431 333.050591,40.4872431 332.989247,40.4872431 C332.927903,40.4872431 332.835886,40.4872431 332.713198,40.4872431 L332.713198,36.8065847 L384.242416,36.8065847 L384.242416,48.5846918 C386.328123,43.9225244 389.732732,40.3338824 394.456243,37.8187657 C399.179755,35.3036491 404.424693,34.0460908 410.191058,34.0460908 C416.080112,34.0460908 421.693116,35.1502884 427.030071,37.3586834 C432.367026,39.5670785 436.722471,43.0023597 440.096408,47.6645271 C443.470345,52.3266945 445.157314,58.0930595 445.157314,64.9636219 L445.157314,113.364281 Z" id="Path"></path>
                    <path d="M513.615405,131.58354 C503.554938,131.58354 494.629341,129.620522 486.838614,125.694487 C479.047887,121.768451 472.882784,116.247463 468.343305,109.131524 C463.803827,102.015584 461.350054,93.8567909 460.981988,84.6551447 C460.981988,74.8400555 463.129039,66.0984916 467.423141,58.4304532 C471.717242,50.7624147 477.636968,44.7813447 485.182318,40.4872431 C492.727668,36.1931416 501.101166,34.0460908 510.302812,34.0460908 C518.522949,34.0460908 526.190988,35.7637314 533.306927,39.1990127 C540.422867,42.6342939 546.097216,47.5111664 550.329973,53.8296301 C554.56273,60.1480938 556.679109,67.3560499 556.679109,75.4534986 L519.688491,75.4534986 C520.056557,66.8652955 519.872524,59.9027165 519.136392,54.5657618 C518.400261,49.228807 517.296063,45.3947878 515.8238,43.0637041 C514.351536,40.7326204 512.756584,39.5670785 511.038944,39.5670785 C508.585171,39.5670785 506.560809,41.4994242 504.965857,45.3641156 C503.370905,49.228807 502.358724,54.5350896 501.929314,61.2829635 C501.499904,68.0308373 501.653265,75.4534986 502.389396,83.5509472 C503.125528,91.28033 504.689808,97.8441709 507.082236,103.24247 C509.474664,108.640769 512.388518,112.689493 515.8238,115.388643 C519.259081,118.087792 523.062428,119.437367 527.233841,119.437367 C532.018697,119.437367 536.558176,117.474349 540.852277,113.548314 C545.146379,109.622278 548.458971,104.960111 550.790055,99.5618115 L556.311043,102.874404 C555.084157,106.923128 553.182483,111.002525 550.606022,115.112594 C548.029561,119.222662 543.73546,122.995337 537.723718,126.430618 C531.711975,129.8659 523.675871,131.58354 513.615405,131.58354 Z M493.003717,69.0123462 L548.58166,69.0123462 L548.58166,75.4534986 L493.003717,75.4534986 L493.003717,69.0123462 Z" id="Shape"></path>
                    <path d="M564.197738,125.142388 L565.301935,125.142388 C567.142264,125.019699 568.767888,124.651633 570.178808,124.03819 C571.589727,123.424747 572.785941,122.259205 573.76745,120.541565 C574.748958,118.823924 575.239713,116.431496 575.239713,113.364281 L575.239713,15.4587656 C575.239713,12.2688616 574.718286,9.81508924 573.675433,8.09744863 C572.63258,6.37980801 571.375022,5.24493831 569.902758,4.69283954 C568.430495,4.14074077 566.712854,3.80334708 564.749836,3.68065847 C564.627148,3.68065847 564.535131,3.68065847 564.473787,3.68065847 C564.412443,3.68065847 564.320426,3.68065847 564.197738,3.68065847 L564.197738,0 L615.726956,0 L615.726956,113.364281 C615.726956,116.431496 616.187038,118.793252 617.107203,120.449548 C618.027368,122.105845 619.192909,123.271386 620.603828,123.946174 C622.014748,124.620961 623.640372,125.019699 625.480701,125.142388 L626.768931,125.142388 L626.768931,128.823046 L564.197738,128.823046 L564.197738,125.142388 Z" id="Path"></path>
                </g>
                <g id="panic" transform="translate(113.9059, 148.632)" fill-rule="nonzero">
                    <path d="M0,129.743211 C0.122688616,129.743211 0.184032923,129.743211 0.184032923,129.743211 C0.184032923,129.743211 0.245377231,129.681867 0.368065847,129.559178 C2.3310837,129.068424 4.04872431,128.424308 5.5209877,127.626832 C6.99325109,126.829356 8.28148155,125.510454 9.38567909,123.670124 C10.4898766,121.829795 11.0419754,119.314679 11.0419754,116.124775 L11.0419754,18.2192594 C11.0419754,15.0293554 10.4898766,12.5142388 9.38567909,10.6739096 C8.28148155,8.83358032 6.99325109,7.5146777 5.5209877,6.7172017 C4.04872431,5.9197257 2.3310837,5.27561047 0.368065847,4.78485601 C0.245377231,4.66216739 0.184032923,4.60082308 0.184032923,4.60082308 C0.184032923,4.60082308 0.122688616,4.60082308 0,4.60082308 L0,2.76049385 L51.5292185,2.76049385 L51.5292185,16.0108643 C54.8418112,10.9806311 58.7371747,7.05459539 63.2153092,4.23275724 C67.6934436,1.41091908 72.5089718,0 77.6618936,0 C84.900522,0 91.1883135,2.20839508 96.5252683,6.62518524 C101.862223,11.0419754 105.94162,17.0230454 108.763458,24.5683953 C111.585296,32.1137451 112.996215,40.4258988 112.996215,49.5048564 C112.996215,58.5838139 111.585296,66.7426069 108.763458,73.9812352 C105.94162,81.2198635 101.862223,86.9555563 96.5252683,91.1883135 C91.1883135,95.4210707 84.900522,97.5374494 77.6618936,97.5374494 C72.5089718,97.5374494 67.6934436,96.1265303 63.2153092,93.3046921 C58.7371747,90.482854 54.8418112,86.5568183 51.5292185,81.526585 L51.5292185,116.124775 C51.5292185,119.314679 52.0813173,121.829795 53.1855148,123.670124 C54.2897124,125.510454 55.5779428,126.829356 57.0502062,127.626832 C58.5224696,128.424308 60.2401102,129.068424 62.2031281,129.559178 C62.3258167,129.681867 62.387161,129.743211 62.387161,129.743211 C62.387161,129.743211 62.4485053,129.743211 62.5711939,129.743211 L62.5711939,131.58354 L0,131.58354 L0,129.743211 Z M61.6510293,82.0786838 C63.3686699,82.0786838 64.9942941,80.8517976 66.5279018,78.3980253 C68.0615095,75.944253 69.2883956,72.2635946 70.2085602,67.3560499 C71.1287249,62.4485053 71.5888072,56.4981075 71.5888072,49.5048564 C71.5888072,41.7754736 71.159397,35.3036491 70.3005767,30.089383 C69.4417564,24.8751168 68.2762146,20.9797533 66.8039512,18.4032923 C65.3316878,15.8268314 63.6753915,14.5386009 61.8350622,14.5386009 C60.3627988,14.5386009 58.8291912,15.94952 57.2342392,18.7713582 C55.6392872,21.5931963 54.2897124,25.6419206 53.1855148,30.9175311 C52.0813173,36.1931416 51.5292185,42.3889167 51.5292185,49.5048564 C51.5292185,56.1300416 52.0813173,61.9270787 53.1855148,66.8959676 C54.2897124,71.8648566 55.608615,75.6375315 57.1422227,78.2139924 C58.6758304,80.7904533 60.1787659,82.0786838 61.6510293,82.0786838 Z" id="Shape"></path>
                    <path d="M158.451022,97.5374494 C153.052722,97.5374494 147.838456,96.6172847 142.808223,94.7769555 C137.77799,92.9366263 133.606577,90.0227717 130.293984,86.0353917 C126.981392,82.0480116 125.325095,76.9257619 125.325095,70.6686426 C125.325095,63.7980801 127.625507,56.8661733 132.22633,49.8729222 C136.827153,42.8796711 143.48301,36.867929 152.193902,31.8376957 C160.904794,26.8074625 171.087949,23.7402471 182.743367,22.6360496 C182.375302,18.4646366 181.884547,15.3360769 181.271104,13.2503705 C180.657661,11.164664 179.614808,9.60038417 178.142544,8.55753093 C176.670281,7.5146777 174.52323,6.99325109 171.701392,6.99325109 C167.898045,6.99325109 163.665288,8.12812078 159.00312,10.3978602 C154.340953,12.6675996 149.770802,16.3175859 145.292668,21.3478191 C140.814533,26.3780523 137.103202,32.880549 134.158676,40.855309 L127.717523,40.855309 L133.238511,8.46551447 C133.974643,8.22013724 134.741447,7.9134157 135.538923,7.54534986 C136.336399,7.17728401 137.164547,6.87056247 138.023367,6.62518524 C143.789732,4.66216739 150.322901,3.1285597 157.622873,2.02436216 C164.922846,0.920164617 171.333326,0.368065847 176.854314,0.368065847 C185.074451,0.368065847 192.74249,1.53360769 199.858429,3.86469139 C206.974369,6.19577509 212.771406,9.96845001 217.249541,15.1827162 C221.727675,20.3969823 223.966742,27.2368727 223.966742,35.7023871 L223.966742,78.2139924 C223.966742,78.5820583 223.966742,78.9501241 223.966742,79.31819 C223.966742,79.6862558 223.966742,80.0543216 223.966742,80.4223875 C224.089431,83.121537 224.36548,85.115227 224.79489,86.4034575 C225.224301,87.691688 225.868416,88.3358032 226.727236,88.3358032 C227.708745,88.3358032 228.598237,87.6303437 229.395713,86.2194246 C230.193189,84.8085055 230.959993,82.6307826 231.696125,79.6862558 L237.769211,82.2627167 C236.542325,86.4341297 235.192751,89.5320172 233.720487,91.5563794 C232.248224,93.5807415 229.825124,95.083677 226.451187,96.065186 C223.07725,97.0466949 218.016344,97.5374494 211.268471,97.5374494 C204.643285,97.5374494 199.091625,96.6786291 194.613491,94.9609884 C190.135357,93.2433478 186.976125,90.6668869 185.135795,87.2316057 C182.804712,90.7895755 179.461447,93.3967086 175.106001,95.0530049 C170.750555,96.7093012 165.198895,97.5374494 158.451022,97.5374494 Z M175.38205,87.5996715 C176.608937,87.5996715 177.835823,86.6795069 179.062709,84.8391777 C180.289595,82.9988484 181.332448,80.0849938 182.191269,76.0976138 C183.050089,72.1102338 183.479499,67.0493284 183.479499,60.9148976 L183.479499,40.3032102 C183.479499,37.9721265 183.448827,35.7637314 183.387483,33.678025 C183.326138,31.5923185 183.234122,29.5679563 183.111433,27.6049385 C179.676152,28.5864474 176.854314,31.3776134 174.645919,35.9784365 C172.437524,40.5792596 170.873244,45.9162144 169.953079,51.9893008 C169.032915,58.0623873 168.572832,63.9207687 168.572832,69.564445 C168.572832,75.944253 169.278292,80.5450761 170.689211,83.3669143 C172.10013,86.1887524 173.66441,87.5996715 175.38205,87.5996715 Z" id="Shape"></path>
                    <path d="M352.421206,79.31819 C352.421206,82.3854053 352.789272,84.7778333 353.525404,86.495474 C354.261535,88.2131146 355.304389,89.3786564 356.653963,89.9920995 C358.003538,90.6055426 359.721179,90.9736084 361.806885,91.096297 L363.463181,91.096297 L363.463181,94.7769555 L304.572646,94.7769555 L304.572646,91.096297 C304.818023,91.096297 305.094073,91.0656249 305.400794,91.0042806 C305.707516,90.9429363 305.983565,90.9122641 306.228942,90.9122641 C307.946583,90.6668869 309.204141,90.2681489 310.001617,89.7160501 C310.799093,89.1639513 311.32052,88.1210981 311.565897,86.5874904 C311.811274,85.0538827 311.933963,82.6307826 311.933963,79.31819 L311.933963,35.1502884 C311.933963,29.1385462 311.535225,24.6297396 310.737749,21.6238685 C309.940273,18.6179974 308.89742,16.6243074 307.609189,15.6427985 C306.320959,14.6612896 304.756679,14.1705351 302.91635,14.1705351 C300.585266,14.1705351 298.591576,14.8759946 296.93528,16.2869137 C295.278983,17.6978328 293.960081,20.2436216 292.978572,23.92428 C291.997063,27.6049385 291.506308,32.696516 291.506308,39.1990127 L291.506308,79.31819 C291.506308,82.508094 291.721013,84.900522 292.150424,86.495474 C292.579834,88.090426 293.223949,89.1946235 294.082769,89.8080666 C294.94159,90.4215097 296.107131,90.7895755 297.579395,90.9122641 C297.824772,91.0349527 298.039477,91.096297 298.22351,91.096297 C298.407543,91.096297 298.622248,91.096297 298.867625,91.096297 L298.867625,94.7769555 L239.97709,94.7769555 L239.97709,91.096297 L241.081287,91.096297 C243.044305,90.8509198 244.700602,90.4215097 246.050176,89.8080666 C247.399751,89.1946235 248.565293,88.0597538 249.546802,86.4034575 C250.528311,84.7471612 251.019065,82.3854053 251.019065,79.31819 L251.019065,18.2192594 C251.019065,15.0293554 250.497639,12.5755831 249.454785,10.8579425 C248.411932,9.14030186 247.154374,8.00543216 245.682111,7.45333339 C244.209847,6.90123462 242.492207,6.56384093 240.529189,6.44115232 C240.4065,6.44115232 240.314484,6.44115232 240.253139,6.44115232 C240.191795,6.44115232 240.099779,6.44115232 239.97709,6.44115232 L239.97709,2.76049385 L291.506308,2.76049385 L291.506308,14.5386009 C293.592015,9.87643355 296.996624,6.28779155 301.720136,3.77267493 C306.443647,1.25755831 311.688586,0 317.454951,0 C323.344004,0 328.957008,1.10419754 334.293963,3.31259262 C339.630918,5.5209877 343.986364,8.95626894 347.360301,13.6184363 C350.734238,18.2806037 352.421206,24.0469686 352.421206,30.9175311 L352.421206,79.31819 Z" id="Path"></path>
                    <path d="M366.589584,91.096297 L367.693782,91.096297 C369.534111,90.9736084 371.159735,90.6055426 372.570655,89.9920995 C373.981574,89.3786564 375.177788,88.2131146 376.159297,86.495474 C377.140805,84.7778333 377.63156,82.3854053 377.63156,79.31819 L377.63156,18.2192594 C377.63156,15.0293554 377.110133,12.5755831 376.06728,10.8579425 C375.024427,9.14030186 373.766869,8.00543216 372.294605,7.45333339 C370.822342,6.90123462 369.104701,6.56384093 367.141683,6.44115232 C367.018995,6.44115232 366.926978,6.44115232 366.865634,6.44115232 C366.80429,6.44115232 366.712273,6.44115232 366.589584,6.44115232 L366.589584,2.76049385 L418.118803,2.76049385 L418.118803,79.31819 C418.118803,82.3854053 418.578885,84.7471612 419.49905,86.4034575 C420.419215,88.0597538 421.584756,89.2252957 422.995675,89.900083 C424.406595,90.5748704 426.032219,90.9736084 427.872548,91.096297 L429.160778,91.096297 L429.160778,94.7769555 L366.589584,94.7769555 L366.589584,91.096297 Z" id="Shape"></path>
                    <path d="M483.210895,97.5374494 C473.273117,97.5374494 464.439537,95.6357758 456.710154,91.8324287 C448.980771,88.0290817 442.907685,82.508094 438.490894,75.2694656 C434.074104,68.0308373 431.865709,59.4426342 431.865709,49.5048564 C431.865709,39.8124557 434.472842,31.1935805 439.687108,23.6482306 C444.901375,16.1028808 451.741265,10.2751716 460.206779,6.16510293 C468.672294,2.05503431 477.628563,0 487.075586,0 C492.473885,0 497.780168,0.705459539 502.994434,2.11637862 C508.2087,3.5272977 513.085573,5.64367632 517.625051,8.46551447 L523.146039,40.855309 L516.704887,40.855309 C515.478001,34.8435668 513.514983,29.1998905 510.815833,23.92428 C508.116684,18.6486696 505.018796,14.3852402 501.522171,11.1339919 C498.025545,7.88274355 494.436903,6.25711939 490.756245,6.25711939 C486.70752,6.25711939 483.302911,8.03610432 480.542417,11.5940742 C477.781924,15.152044 475.726889,19.7528671 474.377314,25.3965434 C473.02774,31.0402197 472.352952,36.9292733 472.352952,43.0637041 C472.352952,50.425021 473.334461,57.3262556 475.297479,63.7674079 C477.260497,70.2085602 480.143679,75.4228264 483.947026,79.4102064 C487.750374,83.3975864 492.167164,85.3912764 497.197397,85.3912764 C501.123433,85.3912764 504.896108,84.3484232 508.515422,82.2627167 C512.134736,80.1770103 515.171279,77.2324835 517.625051,73.4291364 L522.777973,77.2938278 C518.483872,84.900522 512.962884,90.1761324 506.21501,93.1206592 C499.467136,96.065186 491.799098,97.5374494 483.210895,97.5374494 Z" id="Path"></path>
                </g>
                <g id="studio" transform="translate(137.5502, 239.5859)" fill-rule="nonzero">
                    <path d="M51.8972844,131.58354 C42.0821951,131.58354 32.7885325,130.44867 24.0162965,128.178931 C15.2440605,125.909192 8.89492463,122.504583 4.96888893,117.965104 L0,83.1828813 L6.44115232,83.1828813 C9.99912217,92.6299047 14.3238959,100.512648 19.4154734,106.831112 C24.507051,113.149576 29.690645,117.750399 34.9662554,120.633581 C40.2418659,123.516764 45.0880662,124.958355 49.5048564,124.958355 C52.3266945,124.958355 54.7497947,124.590289 56.7741568,123.854157 C58.798519,123.118026 60.3321267,122.013828 61.3749799,120.541565 C62.4178332,119.069301 62.9392598,117.167628 62.9392598,114.836544 C62.9392598,112.260083 62.0190952,109.990344 60.1787659,108.027326 C58.3384367,106.064308 55.8846644,104.254651 52.817449,102.598355 C49.7502336,100.942058 45.2107548,98.7643355 39.1990127,96.065186 C38.3401924,95.6971201 37.4506999,95.3290543 36.5305353,94.9609884 C35.6103707,94.5929226 34.7208782,94.1635124 33.8620579,93.672758 C33.6166807,93.5500694 33.3099591,93.3967086 32.9418933,93.2126757 C32.5738274,93.0286427 32.2671059,92.875282 32.0217287,92.7525934 C26.3780523,90.0534438 21.6545406,87.3542943 17.8511936,84.6551447 C14.0478465,81.9559952 11.0419754,78.8274355 8.83358032,75.2694656 C6.62518524,71.7114958 5.5209877,67.6014272 5.5209877,62.9392598 C5.5209877,56.4367632 7.57602201,51.0384641 11.6860906,46.7443625 C15.7961593,42.450261 21.1637862,39.2910291 27.7889714,37.266667 C34.4141567,35.2423048 41.7141293,34.2301237 49.6888893,34.2301237 C55.9460087,34.2301237 62.6632104,34.9049111 69.8404944,36.2544859 C77.0177784,37.6040607 83.30557,39.5670785 88.703869,42.1435394 L94.2248567,74.5333339 L87.7837044,74.5333339 C85.0845549,67.6627715 81.925323,61.6817015 78.3060089,56.5901239 C74.6866947,51.4985464 70.7299869,47.5725107 66.4358853,44.8120168 C62.1417838,42.051523 57.7249936,40.6712761 53.1855148,40.6712761 C50.9771198,40.6712761 49.0447741,41.1313584 47.3884778,42.051523 C45.7321814,42.9716876 44.4746231,44.1679016 43.6158028,45.640165 C42.7569825,47.1124284 42.3275724,48.7073804 42.3275724,50.425021 C42.3275724,53.4922364 43.3704256,56.1607138 45.4561321,58.4304532 C47.5418385,60.7001925 50.2409881,62.6632104 53.5535807,64.3195067 C56.8661733,65.975803 61.5283407,67.969493 67.5400829,70.3005767 C67.9081487,70.4232653 68.2455424,70.5459539 68.5522639,70.6686426 C68.8589855,70.7913312 69.1963792,70.9140198 69.564445,71.0367084 L73.4291364,72.5089718 C78.5820583,74.7173669 83.0601927,77.0791227 86.8635398,79.5942393 C90.6668869,82.109356 93.7647744,85.2072435 96.1572024,88.887902 C98.5496304,92.5685604 99.7458444,96.9240063 99.7458444,101.95424 C99.7458444,108.702113 97.4761051,114.315118 92.9366263,118.793252 C88.3971475,123.271386 82.508094,126.522635 75.2694656,128.546997 C68.0308373,130.571359 60.2401102,131.58354 51.8972844,131.58354 Z" id="Path"></path>
                    <path d="M103.425425,36.8065847 L182.191516,36.8065847 L182.191516,43.247737 L103.425425,43.247737 L103.425425,36.8065847 Z M103.425425,36.8065847 C115.080843,36.8065847 124.374506,35.4570099 131.306412,32.7578604 C138.238319,30.0587108 143.299225,26.0406587 146.489129,20.7037039 C149.679033,15.3667491 151.458018,8.46551447 151.826083,0 L157.347071,0 L157.347071,36.8065847 L103.425425,36.8065847 Z M187.528471,115.572676 C183.234369,121.829795 178.541529,126.123897 173.449952,128.45498 C168.358374,130.786064 161.825206,131.951606 153.850446,131.951606 C147.22526,131.951606 141.09083,130.387326 135.447153,127.258766 C129.803477,124.130207 125.29467,119.682744 121.920733,113.91638 C118.546796,108.150015 116.859828,101.586174 116.859828,94.2248567 L116.859828,40.855309 L157.347071,40.855309 L157.347071,94.2248567 C157.347071,102.322305 158.604629,108.579425 161.119746,112.996215 C163.634863,117.413005 166.73275,119.6214 170.413409,119.6214 C172.499115,119.6214 174.615494,118.885268 176.762545,117.413005 C178.909595,115.940742 180.96463,113.793691 182.927647,110.971853 L187.528471,115.572676 Z" id="Shape"></path>
                    <path d="M232.430437,131.58354 C226.909449,131.58354 221.572495,130.325982 216.419573,127.810865 C211.266651,125.295749 207.064566,121.707107 203.813317,117.044939 C200.562069,112.382772 198.936445,106.923128 198.936445,100.666009 L198.936445,52.2653502 C198.936445,49.1981348 198.568379,46.8057068 197.832247,45.0880662 C197.096116,43.3704256 196.053263,42.2048837 194.703688,41.5914407 C193.354113,40.9779976 191.636472,40.6099317 189.550766,40.4872431 C189.305389,40.4872431 189.029339,40.4872431 188.722618,40.4872431 C188.415896,40.4872431 188.139847,40.4872431 187.89447,40.4872431 L187.89447,36.8065847 L239.423688,36.8065847 L239.423688,96.4332518 C239.423688,102.199617 239.761082,106.647079 240.435869,109.775639 C241.110657,112.904198 242.061493,115.020577 243.28838,116.124775 C244.515266,117.228972 245.926185,117.781071 247.521137,117.781071 C248.9934,117.781071 250.373647,117.014267 251.661878,115.480659 C252.950108,113.947052 254.023633,111.309246 254.882454,107.567244 C255.741274,103.825241 256.170684,98.7643355 256.170684,92.3845275 L256.170684,52.2653502 C256.170684,49.0754462 255.955979,46.6523461 255.526569,44.9960498 C255.097159,43.3397534 254.453044,42.2048837 253.594223,41.5914407 C252.735403,40.9779976 251.569861,40.6099317 250.097598,40.4872431 L248.809367,40.4872431 L248.809367,36.8065847 L296.657927,36.8065847 L296.657927,113.364281 C296.657927,116.554185 297.179354,119.007957 298.222207,120.725598 C299.26506,122.443238 300.522619,123.578108 301.994882,124.130207 C303.467145,124.682306 305.184786,125.019699 307.147804,125.142388 C307.270493,125.142388 307.362509,125.142388 307.423853,125.142388 C307.485198,125.142388 307.577214,125.142388 307.699903,125.142388 L307.699903,128.823046 L256.170684,128.823046 L256.170684,117.228972 C254.084978,122.013828 250.925746,125.60247 246.692989,127.994898 C242.460231,130.387326 237.706048,131.58354 232.430437,131.58354 Z" id="Path"></path>
                    <path d="M350.393205,131.58354 C343.154576,131.58354 336.866785,129.467162 331.52983,125.234404 C326.192875,121.001647 322.113479,115.265954 319.291641,108.027326 C316.469802,100.788698 315.058883,92.6299047 315.058883,83.5509472 C315.058883,74.4719896 316.469802,66.1598359 319.291641,58.6144861 C322.113479,51.0691362 326.192875,45.0880662 331.52983,40.6712761 C336.866785,36.2544859 343.154576,34.0460908 350.393205,34.0460908 C355.546126,34.0460908 360.361655,35.4570099 364.839789,38.2788481 C369.317924,41.1006862 373.213287,45.0267219 376.52588,50.0569551 L376.52588,15.4587656 C376.52588,12.2688616 375.973781,9.75374494 374.869583,7.9134157 C373.765386,6.07308647 372.477155,4.75418385 371.004892,3.95670785 C369.532629,3.15923185 367.753644,2.45377231 365.667937,1.84032923 C365.667937,1.84032923 365.637265,1.84032923 365.575921,1.84032923 C365.514576,1.84032923 365.483904,1.84032923 365.483904,1.84032923 L365.483904,0 L417.013123,0 L417.013123,131.58354 L416.092958,131.58354 L377.998143,113.180248 C374.68555,118.946613 370.636826,123.455419 365.85197,126.706668 C361.067114,129.957916 355.914192,131.58354 350.393205,131.58354 Z M366.404069,116.124775 C367.876332,116.124775 369.379268,114.836544 370.912876,112.260083 C372.446483,109.683622 373.765386,105.910947 374.869583,100.942058 C375.973781,95.9731695 376.52588,90.1761324 376.52588,83.5509472 C376.52588,76.4350075 375.973781,70.2392324 374.869583,64.9636219 C373.765386,59.6880115 372.415811,55.6392872 370.820859,52.817449 C369.225907,49.9956108 367.692299,48.5846918 366.220036,48.5846918 C364.379707,48.5846918 362.72341,49.8729222 361.251147,52.4493831 C359.778884,55.0258441 358.613342,58.9212076 357.754521,64.1354738 C356.895701,69.3497399 356.466291,75.8215644 356.466291,83.5509472 C356.466291,90.5441983 356.926373,96.4945961 357.846538,101.402141 C358.766703,106.309685 359.993589,109.990344 361.527196,112.444116 C363.060804,114.897888 364.686428,116.124775 366.404069,116.124775 Z" id="Shape"></path>
                    <path d="M430.813368,125.142388 L431.917566,125.142388 C433.757895,125.019699 435.383519,124.651633 436.794438,124.03819 C438.205357,123.424747 439.401571,122.259205 440.38308,120.541565 C441.364589,118.823924 441.855343,116.431496 441.855343,113.364281 L441.855343,52.2653502 C441.855343,49.0754462 441.333917,46.6216739 440.291064,44.9040333 C439.24821,43.1863927 437.990652,42.051523 436.518389,41.4994242 C435.046125,40.9473254 433.328485,40.6099317 431.365467,40.4872431 C431.242778,40.4872431 431.150762,40.4872431 431.089417,40.4872431 C431.028073,40.4872431 430.936057,40.4872431 430.813368,40.4872431 L430.813368,36.8065847 L482.342587,36.8065847 L482.342587,113.364281 C482.342587,116.431496 482.802669,118.793252 483.722833,120.449548 C484.642998,122.105845 485.80854,123.271386 487.219459,123.946174 C488.630378,124.620961 490.256002,125.019699 492.096331,125.142388 L493.384562,125.142388 L493.384562,128.823046 L430.813368,128.823046 L430.813368,125.142388 Z" id="Shape"></path>
                    <path d="M552.275008,131.58354 C541.846475,131.58354 532.644829,129.681867 524.670069,125.87852 C516.695309,122.075172 510.468862,116.554185 505.990727,109.315556 C501.512593,102.076928 499.273526,93.488725 499.273526,83.5509472 C499.273526,73.4904807 501.512593,64.7489169 505.990727,57.3262556 C510.468862,49.9035944 516.725981,44.1679016 524.762086,40.1191773 C532.79819,36.070453 541.969164,34.0460908 552.275008,34.0460908 C563.194294,34.0460908 572.610646,36.0397808 580.524061,40.0271608 C588.437477,44.0145408 594.479891,49.7195615 598.651304,57.1422227 C602.822717,64.5648839 604.908424,73.3677921 604.908424,83.5509472 C604.908424,93.488725 602.700029,102.076928 598.283238,109.315556 C593.866448,116.554185 587.701345,122.075172 579.78793,125.87852 C571.874514,129.681867 562.70354,131.58354 552.275008,131.58354 Z M552.090975,125.87852 C554.912813,125.87852 557.121208,124.897011 558.71616,122.933993 C560.311112,120.970975 561.507326,116.952923 562.304802,110.879836 C563.102278,104.80675 563.501016,95.6971201 563.501016,83.5509472 C563.501016,71.5274629 563.071606,62.3564889 562.212785,56.0380252 C561.353965,49.7195615 560.127079,45.3947878 558.532127,43.0637041 C556.937175,40.7326204 554.790124,39.5670785 552.090975,39.5670785 C549.391825,39.5670785 547.244774,40.7632925 545.649822,43.1557205 C544.05487,45.5481485 542.827984,49.9035944 541.969164,56.2220581 C541.110344,62.5405218 540.680933,71.6501515 540.680933,83.5509472 C540.680933,95.6971201 541.079671,104.80675 541.877147,110.879836 C542.674623,116.952923 543.870837,120.970975 545.465789,122.933993 C547.060741,124.897011 549.269136,125.87852 552.090975,125.87852 Z" id="Shape"></path>
                </g>
                <ellipse id="Oval" cx="689.81904" cy="320.908988" rx="20" ry="45.5"></ellipse>
            </g>
        </g>
    </g>
</svg>