<?xml version="1.0" encoding="UTF-8" standalone="no"?>
<!DOCTYPE svg PUBLIC "-//W3C//DTD SVG 1.1//EN" "http://www.w3.org/Graphics/SVG/1.1/DTD/svg11.dtd">
<svg width="100%" height="100%" viewBox="0 0 743 420" version="1.1" xmlns="http://www.w3.org/2000/svg" xmlns:xlink="http://www.w3.org/1999/xlink" xml:space="preserve" xmlns:serif="http://www.serif.com/" style="fill-rule:evenodd;clip-rule:evenodd;stroke-linejoin:round;stroke-miterlimit:2;">
    <g id="Group-4" transform="matrix(1.10006,0,0,1.10006,-36.875,5.64298)">
        <g id="Page-1">
            <g id="Large">
                <g id="Group-41" serif:id="Group-4">
                    <g id="Mateusz-Cabizza-is" transform="matrix(1,0,0,1,132.055,0)">
                        <path id="Path" d="M17.194,6.225L15.417,9.759L10.474,18.75L5.584,9.77L3.786,6.173L3.229,6.173L3.229,23.409L0,23.409L0,1.388L4.428,1.388L10.432,12.735L10.537,12.735L16.542,1.388L20.98,1.388L20.98,23.409L17.751,23.409L17.751,6.225L17.194,6.225Z" style="fill:rgb(223,129,151);fill-rule:nonzero;"/>
                        <path id="Shape" d="M40.161,23.409C39.222,23.409 38.502,23.167 38,22.683C37.499,22.2 37.199,21.534 37.101,20.685L36.943,20.685C36.614,21.681 36.032,22.447 35.198,22.983C34.363,23.519 33.308,23.788 32.032,23.788C30.364,23.788 29.035,23.349 28.046,22.473C27.058,21.597 26.564,20.394 26.564,18.866C26.564,15.648 28.933,14.039 33.673,14.039L36.859,14.039L36.859,12.693C36.859,11.578 36.558,10.737 35.955,10.169C35.352,9.601 34.461,9.317 33.283,9.317C32.274,9.317 31.431,9.514 30.754,9.906C30.078,10.299 29.512,10.863 29.056,11.599L27.068,10.001C27.552,9.061 28.351,8.285 29.466,7.671C30.581,7.058 31.948,6.751 33.567,6.751C35.594,6.751 37.189,7.251 38.352,8.25C39.516,9.249 40.098,10.653 40.098,12.462L40.098,19.697C40.098,20.005 40.207,20.268 40.424,20.486C40.641,20.703 40.904,20.812 41.213,20.812L42.212,20.812L42.212,23.409L40.161,23.409ZM32.916,21.358C34.058,21.358 35.001,21.097 35.745,20.575C36.488,20.052 36.859,19.388 36.859,18.582L36.859,16.142L33.715,16.142C32.425,16.142 31.459,16.337 30.818,16.726C30.176,17.115 29.856,17.681 29.856,18.424L29.856,19.076C29.856,19.813 30.127,20.377 30.67,20.77C31.214,21.162 31.962,21.358 32.916,21.358Z" style="fill:rgb(223,129,151);fill-rule:nonzero;"/>
                        <path id="Path1" serif:id="Path" d="M51.676,18.225C51.676,18.961 51.797,19.515 52.039,19.886C52.281,20.258 52.629,20.498 53.085,20.606C53.541,20.715 54.2,20.769 55.062,20.769L56.25,20.769L56.25,23.409L54.831,23.409C53.359,23.409 52.165,23.248 51.25,22.925C50.335,22.603 49.638,22.057 49.158,21.29C48.677,20.522 48.437,19.493 48.437,18.203L48.437,9.77L45.03,9.77L45.03,7.13L48.437,7.13L48.437,1.388L51.676,1.388L51.676,7.13L56.209,7.13L56.209,9.77L51.676,9.77L51.676,18.225Z" style="fill:rgb(223,129,151);fill-rule:nonzero;"/>
                        <path id="Shape1" serif:id="Shape" d="M67.556,23.788C65.936,23.788 64.532,23.442 63.344,22.752C62.156,22.061 61.249,21.078 60.625,19.802C60.001,18.526 59.689,17.029 59.689,15.311C59.689,13.587 60.006,12.079 60.641,10.79C61.276,9.5 62.166,8.504 63.312,7.803C64.459,7.102 65.792,6.751 67.314,6.751C68.8,6.751 70.106,7.091 71.231,7.772C72.356,8.452 73.224,9.398 73.834,10.611C74.444,11.824 74.749,13.222 74.749,14.807L74.749,16.069L63.002,16.069L63.002,16.668C63.002,17.993 63.415,19.069 64.243,19.897C65.07,20.724 66.192,21.137 67.608,21.137C68.632,21.137 69.525,20.913 70.29,20.464C71.054,20.016 71.674,19.385 72.151,18.572L74.233,20.328C73.665,21.372 72.806,22.21 71.657,22.841C70.507,23.472 69.14,23.788 67.556,23.788ZM67.324,9.254C66.497,9.254 65.755,9.445 65.1,9.827C64.445,10.21 63.931,10.739 63.559,11.415C63.188,12.092 63.002,12.854 63.002,13.702L63.002,13.934L71.415,13.934L71.415,13.619C71.415,12.315 71.042,11.261 70.295,10.458C69.548,9.655 68.558,9.254 67.324,9.254Z" style="fill:rgb(223,129,151);fill-rule:nonzero;"/>
                        <path id="Path2" serif:id="Path" d="M89.628,20.654L89.482,20.654C89.082,21.607 88.509,22.368 87.762,22.936C87.015,23.504 86.025,23.788 84.791,23.788C83.109,23.788 81.766,23.244 80.764,22.158C79.761,21.071 79.26,19.553 79.26,17.604L79.26,7.13L82.498,7.13L82.498,17.099C82.498,18.424 82.793,19.422 83.382,20.091C83.971,20.761 84.837,21.096 85.98,21.096C86.982,21.096 87.841,20.847 88.556,20.349C89.271,19.851 89.628,19.143 89.628,18.225L89.628,7.13L92.868,7.13L92.868,23.409L89.628,23.409L89.628,20.654Z" style="fill:rgb(223,129,151);fill-rule:nonzero;"/>
                        <path id="Path3" serif:id="Path" d="M105.14,23.788C103.45,23.788 101.967,23.511 100.691,22.957C99.415,22.403 98.364,21.632 97.536,20.643L99.545,18.845C100.295,19.658 101.128,20.268 102.042,20.675C102.957,21.082 104.007,21.285 105.192,21.285C106.384,21.285 107.327,21.078 108.021,20.664C108.715,20.251 109.062,19.641 109.062,18.834C109.062,18.176 108.839,17.701 108.394,17.41C107.949,17.119 107.309,16.913 106.475,16.794L103.899,16.405C102.868,16.251 101.966,16.027 101.191,15.732C100.416,15.438 99.764,14.975 99.235,14.344C98.706,13.713 98.441,12.868 98.441,11.809C98.441,10.19 99.06,8.942 100.297,8.066C101.534,7.19 103.201,6.751 105.297,6.751C108.179,6.751 110.405,7.61 111.975,9.328L110.103,11.242C109.612,10.674 108.968,10.201 108.168,9.822C107.369,9.443 106.373,9.254 105.182,9.254C104.032,9.254 103.152,9.449 102.542,9.838C101.932,10.227 101.627,10.789 101.627,11.526C101.627,12.192 101.854,12.67 102.306,12.961C102.758,13.252 103.394,13.457 104.214,13.576L106.78,13.966C107.832,14.12 108.745,14.344 109.52,14.639C110.294,14.933 110.943,15.396 111.465,16.027C111.987,16.658 112.248,17.502 112.248,18.561C112.248,20.194 111.614,21.474 110.345,22.399C109.076,23.325 107.341,23.788 105.14,23.788Z" style="fill:rgb(223,129,151);fill-rule:nonzero;"/>
                        <path id="Path4" serif:id="Path" d="M117.023,23.409L117.023,20.496L127.044,9.77L117.359,9.77L117.359,7.13L130.672,7.13L130.672,10.043L120.651,20.769L130.988,20.769L130.988,23.409L117.023,23.409Z" style="fill:rgb(223,129,151);fill-rule:nonzero;"/>
                        <path id="Path5" serif:id="Path" d="M157.783,23.788C155.049,23.788 152.996,22.813 151.626,20.864C150.255,18.915 149.57,16.093 149.57,12.399C149.57,8.704 150.255,5.882 151.626,3.933C152.996,1.984 155.049,1.01 157.783,1.01C159.732,1.01 161.258,1.485 162.363,2.434C163.467,3.384 164.313,4.687 164.902,6.341L161.916,7.393C161.516,6.229 161.012,5.342 160.402,4.732C159.792,4.122 158.908,3.817 157.752,3.817C156.202,3.817 155.043,4.41 154.276,5.595C153.508,6.78 153.124,8.434 153.124,10.558L153.124,14.239C153.124,16.363 153.508,18.018 154.276,19.202C155.043,20.387 156.202,20.98 157.752,20.98C158.908,20.98 159.792,20.675 160.402,20.065C161.012,19.455 161.516,18.568 161.916,17.404L164.902,18.456C164.313,20.111 163.467,21.413 162.363,22.363C161.258,23.313 159.732,23.788 157.783,23.788Z" style="fill:rgb(223,129,151);fill-rule:nonzero;"/>
                        <path id="Shape2" serif:id="Shape" d="M182.127,23.409C181.188,23.409 180.468,23.167 179.967,22.683C179.465,22.2 179.165,21.534 179.067,20.685L178.909,20.685C178.58,21.681 177.998,22.447 177.164,22.983C176.33,23.519 175.274,23.788 173.999,23.788C172.33,23.788 171.001,23.349 170.013,22.473C169.024,21.597 168.53,20.394 168.53,18.866C168.53,15.648 170.9,14.039 175.639,14.039L178.826,14.039L178.826,12.693C178.826,11.578 178.524,10.737 177.921,10.169C177.318,9.601 176.428,9.317 175.25,9.317C174.24,9.317 173.397,9.514 172.721,9.906C172.044,10.299 171.478,10.863 171.022,11.599L169.035,10.001C169.518,9.061 170.318,8.285 171.432,7.671C172.547,7.058 173.914,6.751 175.534,6.751C177.56,6.751 179.155,7.251 180.319,8.25C181.482,9.249 182.064,10.653 182.064,12.462L182.064,19.697C182.064,20.005 182.173,20.268 182.39,20.486C182.608,20.703 182.871,20.812 183.179,20.812L184.178,20.812L184.178,23.409L182.127,23.409ZM174.882,21.358C176.025,21.358 176.968,21.097 177.711,20.575C178.454,20.052 178.826,19.388 178.826,18.582L178.826,16.142L175.681,16.142C174.391,16.142 173.426,16.337 172.784,16.726C172.143,17.115 171.822,17.681 171.822,18.424L171.822,19.076C171.822,19.813 172.093,20.377 172.637,20.77C173.18,21.162 173.928,21.358 174.882,21.358Z" style="fill:rgb(223,129,151);fill-rule:nonzero;"/>
                        <path id="Shape3" serif:id="Shape" d="M188.143,0.063L191.382,0.063L191.382,9.885L191.539,9.885C192.037,8.875 192.694,8.101 193.511,7.561C194.328,7.021 195.322,6.751 196.493,6.751C198.449,6.751 199.986,7.489 201.104,8.965C202.222,10.441 202.781,12.542 202.781,15.269C202.781,17.997 202.222,20.098 201.104,21.574C199.986,23.05 198.449,23.788 196.493,23.788C195.322,23.788 194.328,23.518 193.511,22.978C192.694,22.438 192.037,21.663 191.539,20.654L191.382,20.654L191.382,23.409L188.143,23.409L188.143,0.063ZM195.167,21.085C196.478,21.085 197.504,20.683 198.243,19.881C198.983,19.078 199.353,17.99 199.353,16.616L199.353,13.923C199.353,12.549 198.983,11.461 198.243,10.658C197.504,9.856 196.478,9.454 195.167,9.454C194.088,9.454 193.187,9.721 192.465,10.253C191.743,10.786 191.382,11.54 191.382,12.514L191.382,18.025C191.382,18.999 191.743,19.753 192.465,20.286C193.187,20.818 194.088,21.085 195.167,21.085Z" style="fill:rgb(223,129,151);fill-rule:nonzero;"/>
                        <path id="Shape4" serif:id="Shape" d="M211.141,0L211.141,3.88L207.229,3.88L207.229,0L211.141,0ZM207.576,7.13L210.794,7.13L210.794,23.409L207.576,23.409L207.576,7.13Z" style="fill:rgb(223,129,151);fill-rule:nonzero;"/>
                        <path id="Path6" serif:id="Path" d="M216.399,23.409L216.399,20.496L226.421,9.77L216.735,9.77L216.735,7.13L230.049,7.13L230.049,10.043L220.027,20.769L230.364,20.769L230.364,23.409L216.399,23.409Z" style="fill:rgb(223,129,151);fill-rule:nonzero;"/>
                        <path id="Path7" serif:id="Path" d="M235.328,23.409L235.328,20.496L245.349,9.77L235.664,9.77L235.664,7.13L248.977,7.13L248.977,10.043L238.956,20.769L249.293,20.769L249.293,23.409L235.328,23.409Z" style="fill:rgb(223,129,151);fill-rule:nonzero;"/>
                        <path id="Shape5" serif:id="Shape" d="M267.307,23.409C266.368,23.409 265.647,23.167 265.146,22.683C264.645,22.2 264.345,21.534 264.247,20.685L264.089,20.685C263.76,21.681 263.178,22.447 262.343,22.983C261.509,23.519 260.454,23.788 259.178,23.788C257.509,23.788 256.181,23.349 255.192,22.473C254.204,21.597 253.709,20.394 253.709,18.866C253.709,15.648 256.079,14.039 260.819,14.039L264.005,14.039L264.005,12.693C264.005,11.578 263.704,10.737 263.1,10.169C262.497,9.601 261.607,9.317 260.429,9.317C259.42,9.317 258.577,9.514 257.9,9.906C257.224,10.299 256.658,10.863 256.202,11.599L254.214,10.001C254.698,9.061 255.497,8.285 256.612,7.671C257.727,7.058 259.094,6.751 260.713,6.751C262.739,6.751 264.334,7.251 265.498,8.25C266.662,9.249 267.244,10.653 267.244,12.462L267.244,19.697C267.244,20.005 267.352,20.268 267.57,20.486C267.787,20.703 268.05,20.812 268.359,20.812L269.357,20.812L269.357,23.409L267.307,23.409ZM260.061,21.358C261.204,21.358 262.147,21.097 262.89,20.575C263.633,20.052 264.005,19.388 264.005,18.582L264.005,16.142L260.861,16.142C259.571,16.142 258.605,16.337 257.964,16.726C257.322,17.115 257.001,17.681 257.001,18.424L257.001,19.076C257.001,19.813 257.273,20.377 257.816,20.77C258.359,21.162 259.108,21.358 260.061,21.358Z" style="fill:rgb(223,129,151);fill-rule:nonzero;"/>
                        <path id="Shape6" serif:id="Shape" d="M291.588,0L291.588,3.88L287.676,3.88L287.676,0L291.588,0ZM288.023,7.13L291.241,7.13L291.241,23.409L288.023,23.409L288.023,7.13Z" style="fill:rgb(223,129,151);fill-rule:nonzero;"/>
                        <path id="Path8" serif:id="Path" d="M303.892,23.788C302.202,23.788 300.72,23.511 299.444,22.957C298.168,22.403 297.116,21.632 296.289,20.643L298.297,18.845C299.047,19.658 299.88,20.268 300.795,20.675C301.71,21.082 302.76,21.285 303.945,21.285C305.136,21.285 306.079,21.078 306.773,20.664C307.467,20.251 307.814,19.641 307.814,18.834C307.814,18.176 307.592,17.701 307.147,17.41C306.701,17.119 306.062,16.913 305.227,16.794L302.651,16.405C301.621,16.251 300.718,16.027 299.943,15.732C299.168,15.438 298.516,14.975 297.987,14.344C297.458,13.713 297.193,12.868 297.193,11.809C297.193,10.19 297.812,8.942 299.049,8.066C300.287,7.19 301.953,6.751 304.05,6.751C306.931,6.751 309.157,7.61 310.728,9.328L308.855,11.242C308.365,10.674 307.72,10.201 306.921,9.822C306.121,9.443 305.126,9.254 303.934,9.254C302.784,9.254 301.905,9.449 301.295,9.838C300.685,10.227 300.38,10.789 300.38,11.526C300.38,12.192 300.606,12.67 301.058,12.961C301.51,13.252 302.146,13.457 302.967,13.576L305.532,13.966C306.584,14.12 307.497,14.344 308.272,14.639C309.047,14.933 309.695,15.396 310.217,16.027C310.74,16.658 311.001,17.502 311.001,18.561C311.001,20.194 310.366,21.474 309.097,22.399C307.829,23.325 306.093,23.788 303.892,23.788Z" style="fill:rgb(223,129,151);fill-rule:nonzero;"/>
                    </g>
                    <g id="Kernel" transform="matrix(1,0,0,1,0,0.5859)">
                        <path id="Path9" serif:id="Path" d="M123.302,115.021C124.529,117.72 126.032,119.775 127.811,121.186C129.59,122.597 131.369,123.578 133.148,124.13C134.927,124.682 136.798,125.02 138.761,125.142L139.681,125.142L139.681,128.823L73.797,128.823L73.797,125.142L74.717,125.142C76.312,125.02 77.601,124.682 78.582,124.13C79.564,123.578 80.208,122.535 80.514,121.002C80.821,119.468 80.545,117.29 79.686,114.468L53.554,45.272L51.529,47.112L51.529,113.364C51.529,116.431 52.02,118.824 53.001,120.542C53.983,122.259 55.179,123.425 56.59,124.038C58.001,124.652 59.627,125.02 61.467,125.142L62.571,125.142L62.571,128.823L0,128.823L0,125.142L0.736,125.142C2.699,125.02 4.417,124.652 5.889,124.038C7.361,123.425 8.588,122.29 9.57,120.634C10.551,118.977 11.042,116.554 11.042,113.364L11.042,15.459C11.042,12.269 10.521,9.815 9.478,8.097C8.435,6.38 7.147,5.245 5.613,4.693C4.079,4.141 2.331,3.803 0.368,3.681L0,3.681L0,0L62.571,0L62.571,3.681L61.835,3.681C59.872,3.803 58.154,4.171 56.682,4.785C55.21,5.398 53.983,6.533 53.001,8.189C52.02,9.846 51.529,12.269 51.529,15.459L51.529,38.647L83.367,11.778C85.821,9.57 87.477,7.883 88.336,6.717C89.195,5.552 89.471,4.785 89.164,4.417C88.857,4.049 88.09,3.803 86.864,3.681L86.311,3.681L86.311,0L118.333,0L118.333,3.681L117.413,3.681C115.082,3.803 112.597,4.141 109.96,4.693C107.322,5.245 104.285,6.288 100.85,7.821C97.415,9.355 93.918,11.471 90.36,14.171L86.311,17.667L123.302,115.021Z" style="fill:rgb(223,129,151);fill-rule:nonzero;"/>
                        <path id="Shape7" serif:id="Shape" d="M182.361,131.584C172.301,131.584 163.375,129.621 155.584,125.694C147.794,121.768 141.629,116.247 137.089,109.132C132.55,102.016 130.096,93.857 129.728,84.655C129.728,74.84 131.875,66.098 136.169,58.43C140.463,50.762 146.383,44.781 153.928,40.487C161.473,36.193 169.847,34.046 179.049,34.046C187.269,34.046 194.937,35.764 202.053,39.199C209.169,42.634 214.843,47.511 219.076,53.83C223.309,60.148 225.425,67.356 225.425,75.453L188.434,75.453C188.802,66.865 188.618,59.903 187.882,54.566C187.146,49.229 186.042,45.395 184.57,43.064C183.097,40.733 181.502,39.567 179.785,39.567C177.331,39.567 175.307,41.499 173.712,45.364C172.117,49.229 171.105,54.535 170.675,61.283C170.246,68.031 170.399,75.453 171.135,83.551C171.871,91.28 173.436,97.844 175.828,103.242C178.22,108.641 181.134,112.689 184.57,115.389C188.005,118.088 191.808,119.437 195.98,119.437C200.764,119.437 205.304,117.474 209.598,113.548C213.892,109.622 217.205,104.96 219.536,99.562L225.057,102.874C223.83,106.923 221.928,111.003 219.352,115.113C216.775,119.223 212.481,122.995 206.47,126.431C200.458,129.866 192.422,131.584 182.361,131.584ZM161.75,69.012L217.327,69.012L217.327,75.453L161.75,75.453L161.75,69.012Z" style="fill:rgb(223,129,151);fill-rule:nonzero;"/>
                        <path id="Shape8" serif:id="Shape" d="M283.577,113.364C283.577,116.554 283.792,118.977 284.221,120.634C284.65,122.29 285.295,123.425 286.153,124.038C287.012,124.652 288.178,125.02 289.65,125.142L290.938,125.142L290.938,128.823L232.048,128.823L232.048,125.142L233.152,125.142C234.992,125.02 236.618,124.652 238.029,124.038C239.44,123.425 240.636,122.259 241.617,120.542C242.599,118.824 243.09,116.431 243.09,113.364L243.09,52.265C243.09,49.075 242.568,46.622 241.525,44.904C240.483,43.186 239.225,42.052 237.753,41.499C236.28,40.947 234.563,40.61 232.6,40.487L232.048,40.487L232.048,36.807L283.577,36.807L283.577,113.364ZM298.668,43.064C295.478,43.064 292.779,44.996 290.57,48.861C288.362,52.725 286.644,58.369 285.417,65.792C284.19,73.214 283.577,82.201 283.577,92.753L275.111,71.773C276.216,63.553 278.209,56.59 281.093,50.885C283.976,45.18 287.38,40.947 291.306,38.187C295.232,35.426 299.158,34.046 303.084,34.046C307.01,34.046 310.814,35.212 314.494,37.543C318.175,39.874 321.058,42.818 323.144,46.376L327.377,80.422L319.831,80.422C316.151,69.871 313.36,62.172 311.458,57.326C309.556,52.48 307.624,48.891 305.661,46.56C303.698,44.229 301.367,43.064 298.668,43.064Z" style="fill:rgb(223,129,151);fill-rule:nonzero;"/>
                        <path id="Path10" serif:id="Path" d="M445.157,113.364C445.157,116.431 445.525,118.824 446.262,120.542C446.998,122.259 448.04,123.425 449.39,124.038C450.74,124.652 452.457,125.02 454.543,125.142L456.199,125.142L456.199,128.823L397.309,128.823L397.309,125.142C397.554,125.142 397.83,125.112 398.137,125.05C398.444,124.989 398.72,124.958 398.965,124.958C400.683,124.713 401.94,124.314 402.738,123.762C403.535,123.21 404.057,122.167 404.302,120.634C404.547,119.1 404.67,116.677 404.67,113.364L404.67,69.196C404.67,63.185 404.271,58.676 403.474,55.67C402.676,52.664 401.634,50.67 400.345,49.689C399.057,48.707 397.493,48.217 395.652,48.217C393.321,48.217 391.328,48.922 389.671,50.333C388.015,51.744 386.696,54.29 385.715,57.97C384.733,61.651 384.242,66.743 384.242,73.245L384.242,113.364C384.242,116.554 384.457,118.947 384.887,120.542C385.316,122.137 385.96,123.241 386.819,123.854C387.678,124.468 388.843,124.836 390.316,124.958C390.561,125.081 390.776,125.142 390.96,125.142L391.604,125.142L391.604,128.823L332.713,128.823L332.713,125.142L333.817,125.142C335.78,124.897 337.437,124.468 338.786,123.854C340.136,123.241 341.301,122.106 342.283,120.45C343.264,118.793 343.755,116.431 343.755,113.364L343.755,52.265C343.755,49.075 343.234,46.622 342.191,44.904C341.148,43.186 339.89,42.052 338.418,41.499C336.946,40.947 335.228,40.61 333.265,40.487L332.713,40.487L332.713,36.807L384.242,36.807L384.242,48.585C386.328,43.923 389.733,40.334 394.456,37.819C399.18,35.304 404.425,34.046 410.191,34.046C416.08,34.046 421.693,35.15 427.03,37.359C432.367,39.567 436.722,43.002 440.096,47.665C443.47,52.327 445.157,58.093 445.157,64.964L445.157,113.364Z" style="fill:rgb(223,129,151);fill-rule:nonzero;"/>
                        <path id="Shape9" serif:id="Shape" d="M513.615,131.584C503.555,131.584 494.629,129.621 486.839,125.694C479.048,121.768 472.883,116.247 468.343,109.132C463.804,102.016 461.35,93.857 460.982,84.655C460.982,74.84 463.129,66.098 467.423,58.43C471.717,50.762 477.637,44.781 485.182,40.487C492.728,36.193 501.101,34.046 510.303,34.046C518.523,34.046 526.191,35.764 533.307,39.199C540.423,42.634 546.097,47.511 550.33,53.83C554.563,60.148 556.679,67.356 556.679,75.453L519.688,75.453C520.057,66.865 519.873,59.903 519.136,54.566C518.4,49.229 517.296,45.395 515.824,43.064C514.352,40.733 512.757,39.567 511.039,39.567C508.585,39.567 506.561,41.499 504.966,45.364C503.371,49.229 502.359,54.535 501.929,61.283C501.5,68.031 501.653,75.453 502.389,83.551C503.126,91.28 504.69,97.844 507.082,103.242C509.475,108.641 512.389,112.689 515.824,115.389C519.259,118.088 523.062,119.437 527.234,119.437C532.019,119.437 536.558,117.474 540.852,113.548C545.146,109.622 548.459,104.96 550.79,99.562L556.311,102.874C555.084,106.923 553.182,111.003 550.606,115.113C548.03,119.223 543.735,122.995 537.724,126.431C531.712,129.866 523.676,131.584 513.615,131.584ZM493.004,69.012L548.582,69.012L548.582,75.453L493.004,75.453L493.004,69.012Z" style="fill:rgb(223,129,151);fill-rule:nonzero;"/>
                        <path id="Path11" serif:id="Path" d="M564.198,125.142L565.302,125.142C567.142,125.02 568.768,124.652 570.179,124.038C571.59,123.425 572.786,122.259 573.767,120.542C574.749,118.824 575.24,116.431 575.24,113.364L575.24,15.459C575.24,12.269 574.718,9.815 573.675,8.097C572.633,6.38 571.375,5.245 569.903,4.693C568.43,4.141 566.713,3.803 564.75,3.681L564.198,3.681L564.198,0L615.727,0L615.727,113.364C615.727,116.431 616.187,118.793 617.107,120.45C618.027,122.106 619.193,123.271 620.604,123.946C622.015,124.621 623.64,125.02 625.481,125.142L626.769,125.142L626.769,128.823L564.198,128.823L564.198,125.142Z" style="fill:rgb(223,129,151);fill-rule:nonzero;"/>
                    </g>
                    <g id="panic" transform="matrix(1,0,0,1,113.906,148.632)">
                        <path id="Shape10" serif:id="Shape" d="M0,129.743L0.184,129.743C0.184,129.743 0.245,129.682 0.368,129.559C2.331,129.068 4.049,128.424 5.521,127.627C6.993,126.829 8.281,125.51 9.386,123.67C10.49,121.83 11.042,119.315 11.042,116.125L11.042,18.219C11.042,15.029 10.49,12.514 9.386,10.674C8.281,8.834 6.993,7.515 5.521,6.717C4.049,5.92 2.331,5.276 0.368,4.785C0.245,4.662 0.184,4.601 0.184,4.601L0,4.601L0,2.76L51.529,2.76L51.529,16.011C54.842,10.981 58.737,7.055 63.215,4.233C67.693,1.411 72.509,0 77.662,0C84.901,0 91.188,2.208 96.525,6.625C101.862,11.042 105.942,17.023 108.763,24.568C111.585,32.114 112.996,40.426 112.996,49.505C112.996,58.584 111.585,66.743 108.763,73.981C105.942,81.22 101.862,86.956 96.525,91.188C91.188,95.421 84.901,97.537 77.662,97.537C72.509,97.537 67.693,96.127 63.215,93.305C58.737,90.483 54.842,86.557 51.529,81.527L51.529,116.125C51.529,119.315 52.081,121.83 53.186,123.67C54.29,125.51 55.578,126.829 57.05,127.627C58.522,128.424 60.24,129.068 62.203,129.559C62.326,129.682 62.387,129.743 62.387,129.743L62.571,129.743L62.571,131.584L0,131.584L0,129.743ZM61.651,82.079C63.369,82.079 64.994,80.852 66.528,78.398C68.062,75.944 69.288,72.264 70.209,67.356C71.129,62.449 71.589,56.498 71.589,49.505C71.589,41.775 71.159,35.304 70.301,30.089C69.442,24.875 68.276,20.98 66.804,18.403C65.332,15.827 63.675,14.539 61.835,14.539C60.363,14.539 58.829,15.95 57.234,18.771C55.639,21.593 54.29,25.642 53.186,30.918C52.081,36.193 51.529,42.389 51.529,49.505C51.529,56.13 52.081,61.927 53.186,66.896C54.29,71.865 55.609,75.638 57.142,78.214C58.676,80.79 60.179,82.079 61.651,82.079Z" style="fill:rgb(223,129,151);fill-rule:nonzero;"/>
                        <path id="Shape11" serif:id="Shape" d="M158.451,97.537C153.053,97.537 147.838,96.617 142.808,94.777C137.778,92.937 133.607,90.023 130.294,86.035C126.981,82.048 125.325,76.926 125.325,70.669C125.325,63.798 127.626,56.866 132.226,49.873C136.827,42.88 143.483,36.868 152.194,31.838C160.905,26.807 171.088,23.74 182.743,22.636C182.375,18.465 181.885,15.336 181.271,13.25C180.658,11.165 179.615,9.6 178.143,8.558C176.67,7.515 174.523,6.993 171.701,6.993C167.898,6.993 163.665,8.128 159.003,10.398C154.341,12.668 149.771,16.318 145.293,21.348C140.815,26.378 137.103,32.881 134.159,40.855L127.718,40.855L133.239,8.466C133.975,8.22 134.741,7.913 135.539,7.545C136.336,7.177 137.165,6.871 138.023,6.625C143.79,4.662 150.323,3.129 157.623,2.024C164.923,0.92 171.333,0.368 176.854,0.368C185.074,0.368 192.742,1.534 199.858,3.865C206.974,6.196 212.771,9.968 217.25,15.183C221.728,20.397 223.967,27.237 223.967,35.702L223.967,80.422C224.089,83.122 224.365,85.115 224.795,86.403C225.224,87.692 225.868,88.336 226.727,88.336C227.709,88.336 228.598,87.63 229.396,86.219C230.193,84.809 230.96,82.631 231.696,79.686L237.769,82.263C236.542,86.434 235.193,89.532 233.72,91.556C232.248,93.581 229.825,95.084 226.451,96.065C223.077,97.047 218.016,97.537 211.268,97.537C204.643,97.537 199.092,96.679 194.613,94.961C190.135,93.243 186.976,90.667 185.136,87.232C182.805,90.79 179.461,93.397 175.106,95.053C170.751,96.709 165.199,97.537 158.451,97.537ZM175.382,87.6C176.609,87.6 177.836,86.68 179.063,84.839C180.29,82.999 181.332,80.085 182.191,76.098C183.05,72.11 183.479,67.049 183.479,60.915L183.479,40.303C183.479,37.972 183.449,35.764 183.387,33.678C183.326,31.592 183.234,29.568 183.111,27.605C179.676,28.586 176.854,31.378 174.646,35.978C172.438,40.579 170.873,45.916 169.953,51.989C169.033,58.062 168.573,63.921 168.573,69.564C168.573,75.944 169.278,80.545 170.689,83.367C172.1,86.189 173.664,87.6 175.382,87.6Z" style="fill:rgb(223,129,151);fill-rule:nonzero;"/>
                        <path id="Path12" serif:id="Path" d="M352.421,79.318C352.421,82.385 352.789,84.778 353.525,86.495C354.262,88.213 355.304,89.379 356.654,89.992C358.004,90.606 359.721,90.974 361.807,91.096L363.463,91.096L363.463,94.777L304.573,94.777L304.573,91.096C304.818,91.096 305.094,91.066 305.401,91.004C305.708,90.943 305.984,90.912 306.229,90.912C307.947,90.667 309.204,90.268 310.002,89.716C310.799,89.164 311.321,88.121 311.566,86.587C311.811,85.054 311.934,82.631 311.934,79.318L311.934,35.15C311.934,29.139 311.535,24.63 310.738,21.624C309.94,18.618 308.897,16.624 307.609,15.643C306.321,14.661 304.757,14.171 302.916,14.171C300.585,14.171 298.592,14.876 296.935,16.287C295.279,17.698 293.96,20.244 292.979,23.924C291.997,27.605 291.506,32.697 291.506,39.199L291.506,79.318C291.506,82.508 291.721,84.901 292.15,86.495C292.58,88.09 293.224,89.195 294.083,89.808C294.942,90.422 296.107,90.79 297.579,90.912C297.825,91.035 298.039,91.096 298.224,91.096L298.868,91.096L298.868,94.777L239.977,94.777L239.977,91.096L241.081,91.096C243.044,90.851 244.701,90.422 246.05,89.808C247.4,89.195 248.565,88.06 249.547,86.403C250.528,84.747 251.019,82.385 251.019,79.318L251.019,18.219C251.019,15.029 250.498,12.576 249.455,10.858C248.412,9.14 247.154,8.005 245.682,7.453C244.21,6.901 242.492,6.564 240.529,6.441L239.977,6.441L239.977,2.76L291.506,2.76L291.506,14.539C293.592,9.876 296.997,6.288 301.72,3.773C306.444,1.258 311.689,0 317.455,0C323.344,0 328.957,1.104 334.294,3.313C339.631,5.521 343.986,8.956 347.36,13.618C350.734,18.281 352.421,24.047 352.421,30.918L352.421,79.318Z" style="fill:rgb(223,129,151);fill-rule:nonzero;"/>
                        <path id="Shape12" serif:id="Shape" d="M366.59,91.096L367.694,91.096C369.534,90.974 371.16,90.606 372.571,89.992C373.982,89.379 375.178,88.213 376.159,86.495C377.141,84.778 377.632,82.385 377.632,79.318L377.632,18.219C377.632,15.029 377.11,12.576 376.067,10.858C375.024,9.14 373.767,8.005 372.295,7.453C370.822,6.901 369.105,6.564 367.142,6.441L366.59,6.441L366.59,2.76L418.119,2.76L418.119,79.318C418.119,82.385 418.579,84.747 419.499,86.403C420.419,88.06 421.585,89.225 422.996,89.9C424.407,90.575 426.032,90.974 427.873,91.096L429.161,91.096L429.161,94.777L366.59,94.777L366.59,91.096Z" style="fill:rgb(223,129,151);fill-rule:nonzero;"/>
                        <path id="Path13" serif:id="Path" d="M483.211,97.537C473.273,97.537 464.44,95.636 456.71,91.832C448.981,88.029 442.908,82.508 438.491,75.269C434.074,68.031 431.866,59.443 431.866,49.505C431.866,39.812 434.473,31.194 439.687,23.648C444.901,16.103 451.741,10.275 460.207,6.165C468.672,2.055 477.629,0 487.076,0C492.474,0 497.78,0.705 502.994,2.116C508.209,3.527 513.086,5.644 517.625,8.466L523.146,40.855L516.705,40.855C515.478,34.844 513.515,29.2 510.816,23.924C508.117,18.649 505.019,14.385 501.522,11.134C498.026,7.883 494.437,6.257 490.756,6.257C486.708,6.257 483.303,8.036 480.542,11.594C477.782,15.152 475.727,19.753 474.377,25.397C473.028,31.04 472.353,36.929 472.353,43.064C472.353,50.425 473.334,57.326 475.297,63.767C477.26,70.209 480.144,75.423 483.947,79.41C487.75,83.398 492.167,85.391 497.197,85.391C501.123,85.391 504.896,84.348 508.515,82.263C512.135,80.177 515.171,77.232 517.625,73.429L522.778,77.294C518.484,84.901 512.963,90.176 506.215,93.121C499.467,96.065 491.799,97.537 483.211,97.537Z" style="fill:rgb(223,129,151);fill-rule:nonzero;"/>
                    </g>
                    <g id="studio" transform="matrix(1,0,0,1,137.55,239.586)">
                        <path id="Path14" serif:id="Path" d="M51.897,131.584C42.082,131.584 32.789,130.449 24.016,128.179C15.244,125.909 8.895,122.505 4.969,117.965L0,83.183L6.441,83.183C9.999,92.63 14.324,100.513 19.415,106.831C24.507,113.15 29.691,117.75 34.966,120.634C40.242,123.517 45.088,124.958 49.505,124.958C52.327,124.958 54.75,124.59 56.774,123.854C58.799,123.118 60.332,122.014 61.375,120.542C62.418,119.069 62.939,117.168 62.939,114.837C62.939,112.26 62.019,109.99 60.179,108.027C58.338,106.064 55.885,104.255 52.817,102.598C49.75,100.942 45.211,98.764 39.199,96.065C38.34,95.697 37.451,95.329 36.531,94.961C35.61,94.593 34.721,94.164 33.862,93.673C33.617,93.55 32.267,92.875 32.022,92.753C26.378,90.053 21.655,87.354 17.851,84.655C14.048,81.956 11.042,78.827 8.834,75.269C6.625,71.711 5.521,67.601 5.521,62.939C5.521,56.437 7.576,51.038 11.686,46.744C15.796,42.45 21.164,39.291 27.789,37.267C34.414,35.242 41.714,34.23 49.689,34.23C55.946,34.23 62.663,34.905 69.84,36.254C77.018,37.604 83.306,39.567 88.704,42.144L94.225,74.533L87.784,74.533C85.085,67.663 81.925,61.682 78.306,56.59C74.687,51.499 70.73,47.573 66.436,44.812C62.142,42.052 57.725,40.671 53.186,40.671C50.977,40.671 49.045,41.131 47.388,42.052C45.732,42.972 44.475,44.168 43.616,45.64C42.757,47.112 42.328,48.707 42.328,50.425C42.328,53.492 43.37,56.161 45.456,58.43C47.542,60.7 50.241,62.663 53.554,64.32C56.866,65.976 61.528,67.969 67.54,70.301C67.908,70.423 68.246,70.546 68.552,70.669C68.859,70.791 69.196,70.914 69.564,71.037L73.429,72.509C78.582,74.717 83.06,77.079 86.864,79.594C90.667,82.109 93.765,85.207 96.157,88.888C98.55,92.569 99.746,96.924 99.746,101.954C99.746,108.702 97.476,114.315 92.937,118.793C88.397,123.271 82.508,126.523 75.269,128.547C68.031,130.571 60.24,131.584 51.897,131.584Z" style="fill:rgb(223,129,151);fill-rule:nonzero;"/>
                        <path id="Shape13" serif:id="Shape" d="M103.425,36.807L182.192,36.807L182.192,43.248L103.425,43.248L103.425,36.807ZM103.425,36.807C115.081,36.807 124.375,35.457 131.306,32.758C138.238,30.059 143.299,26.041 146.489,20.704C149.679,15.367 151.458,8.466 151.826,0L157.347,0L157.347,36.807L103.425,36.807ZM187.528,115.573C183.234,121.83 178.542,126.124 173.45,128.455C168.358,130.786 161.825,131.952 153.85,131.952C147.225,131.952 141.091,130.387 135.447,127.259C129.803,124.13 125.295,119.683 121.921,113.916C118.547,108.15 116.86,101.586 116.86,94.225L116.86,40.855L157.347,40.855L157.347,94.225C157.347,102.322 158.605,108.579 161.12,112.996C163.635,117.413 166.733,119.621 170.413,119.621C172.499,119.621 174.615,118.885 176.763,117.413C178.91,115.941 180.965,113.794 182.928,110.972L187.528,115.573Z" style="fill:rgb(223,129,151);fill-rule:nonzero;"/>
                        <path id="Path15" serif:id="Path" d="M232.43,131.584C226.909,131.584 221.572,130.326 216.42,127.811C211.267,125.296 207.065,121.707 203.813,117.045C200.562,112.383 198.936,106.923 198.936,100.666L198.936,52.265C198.936,49.198 198.568,46.806 197.832,45.088C197.096,43.37 196.053,42.205 194.704,41.591C193.354,40.978 191.636,40.61 189.551,40.487L187.894,40.487L187.894,36.807L239.424,36.807L239.424,96.433C239.424,102.2 239.761,106.647 240.436,109.776C241.111,112.904 242.061,115.021 243.288,116.125C244.515,117.229 245.926,117.781 247.521,117.781C248.993,117.781 250.374,117.014 251.662,115.481C252.95,113.947 254.024,111.309 254.882,107.567C255.741,103.825 256.171,98.764 256.171,92.385L256.171,52.265C256.171,49.075 255.956,46.652 255.527,44.996C255.097,43.34 254.453,42.205 253.594,41.591C252.735,40.978 251.57,40.61 250.098,40.487L248.809,40.487L248.809,36.807L296.658,36.807L296.658,113.364C296.658,116.554 297.179,119.008 298.222,120.726C299.265,122.443 300.523,123.578 301.995,124.13C303.467,124.682 305.185,125.02 307.148,125.142L307.7,125.142L307.7,128.823L256.171,128.823L256.171,117.229C254.085,122.014 250.926,125.602 246.693,127.995C242.46,130.387 237.706,131.584 232.43,131.584Z" style="fill:rgb(223,129,151);fill-rule:nonzero;"/>
                        <path id="Shape14" serif:id="Shape" d="M350.393,131.584C343.155,131.584 336.867,129.467 331.53,125.234C326.193,121.002 322.113,115.266 319.292,108.027C316.47,100.789 315.059,92.63 315.059,83.551C315.059,74.472 316.47,66.16 319.292,58.614C322.113,51.069 326.193,45.088 331.53,40.671C336.867,36.254 343.155,34.046 350.393,34.046C355.546,34.046 360.362,35.457 364.84,38.279C369.318,41.101 373.213,45.027 376.526,50.057L376.526,15.459C376.526,12.269 375.974,9.754 374.87,7.913C373.765,6.073 372.477,4.754 371.005,3.957C369.533,3.159 367.754,2.454 365.668,1.84L365.484,1.84L365.484,0L417.013,0L417.013,131.584L416.093,131.584L377.998,113.18C374.686,118.947 370.637,123.455 365.852,126.707C361.067,129.958 355.914,131.584 350.393,131.584ZM366.404,116.125C367.876,116.125 369.379,114.837 370.913,112.26C372.446,109.684 373.765,105.911 374.87,100.942C375.974,95.973 376.526,90.176 376.526,83.551C376.526,76.435 375.974,70.239 374.87,64.964C373.765,59.688 372.416,55.639 370.821,52.817C369.226,49.996 367.692,48.585 366.22,48.585C364.38,48.585 362.723,49.873 361.251,52.449C359.779,55.026 358.613,58.921 357.755,64.135C356.896,69.35 356.466,75.822 356.466,83.551C356.466,90.544 356.926,96.495 357.847,101.402C358.767,106.31 359.994,109.99 361.527,112.444C363.061,114.898 364.686,116.125 366.404,116.125Z" style="fill:rgb(223,129,151);fill-rule:nonzero;"/>
                        <path id="Shape15" serif:id="Shape" d="M430.813,125.142L431.918,125.142C433.758,125.02 435.384,124.652 436.794,124.038C438.205,123.425 439.402,122.259 440.383,120.542C441.365,118.824 441.855,116.431 441.855,113.364L441.855,52.265C441.855,49.075 441.334,46.622 440.291,44.904C439.248,43.186 437.991,42.052 436.518,41.499C435.046,40.947 433.328,40.61 431.365,40.487L430.813,40.487L430.813,36.807L482.343,36.807L482.343,113.364C482.343,116.431 482.803,118.793 483.723,120.45C484.643,122.106 485.809,123.271 487.219,123.946C488.63,124.621 490.256,125.02 492.096,125.142L493.385,125.142L493.385,128.823L430.813,128.823L430.813,125.142Z" style="fill:rgb(223,129,151);fill-rule:nonzero;"/>
                        <path id="Shape16" serif:id="Shape" d="M552.275,131.584C541.846,131.584 532.645,129.682 524.67,125.879C516.695,122.075 510.469,116.554 505.991,109.316C501.513,102.077 499.274,93.489 499.274,83.551C499.274,73.49 501.513,64.749 505.991,57.326C510.469,49.904 516.726,44.168 524.762,40.119C532.798,36.07 541.969,34.046 552.275,34.046C563.194,34.046 572.611,36.04 580.524,40.027C588.437,44.015 594.48,49.72 598.651,57.142C602.823,64.565 604.908,73.368 604.908,83.551C604.908,93.489 602.7,102.077 598.283,109.316C593.866,116.554 587.701,122.075 579.788,125.879C571.875,129.682 562.704,131.584 552.275,131.584ZM552.091,125.879C554.913,125.879 557.121,124.897 558.716,122.934C560.311,120.971 561.507,116.953 562.305,110.88C563.102,104.807 563.501,95.697 563.501,83.551C563.501,71.527 563.072,62.356 562.213,56.038C561.354,49.72 560.127,45.395 558.532,43.064C556.937,40.733 554.79,39.567 552.091,39.567C549.392,39.567 547.245,40.763 545.65,43.156C544.055,45.548 542.828,49.904 541.969,56.222C541.11,62.541 540.681,71.65 540.681,83.551C540.681,95.697 541.08,104.807 541.877,110.88C542.675,116.953 543.871,120.971 545.466,122.934C547.061,124.897 549.269,125.879 552.091,125.879Z" style="fill:rgb(223,129,151);fill-rule:nonzero;"/>
                    </g>
                    <ellipse id="Oval" cx="689.819" cy="320.909" rx="20" ry="45.5" style="fill:rgb(223,129,151);"/>
                </g>
            </g>
        </g>
    </g>
</svg>
