<?xml version="1.0" encoding="UTF-8"?>
<svg width="298px" height="29px" viewBox="0 0 298 29" version="1.1" xmlns="http://www.w3.org/2000/svg" xmlns:xlink="http://www.w3.org/1999/xlink">
    <title>Artboard</title>
    <g id="Artboard" stroke="none" stroke-width="1" fill="none" fill-rule="evenodd">
        <path d="M-67.6644295,21.2147651 C-82.5639218,25.9284116 -54.2948514,28.2852349 17.1427816,28.2852349 C36.4470535,28.2852349 57.1381869,9.57677671 81.6969608,9.2325776 C99.0260811,8.9897044 118.860724,25.0906055 148.994966,26.2651007 C163.584774,26.8337447 190.369919,9.93395462 219.111885,9.2325776 C233.492459,8.88165506 253.36655,15.0937585 278.734159,27.8688878 C286.868585,31.9653856 298.172374,22.8390629 307.436533,28.2852349 C311.163707,30.4763491 316.092021,38.6413428 322.221477,52.7802162 L339.392617,148.483221 L-67.6644295,148.483221 L-67.6644295,21.2147651 Z" id="Rectangle" fill="#EBFF85"></path>
        <path d="M51.236002,11.6494144 L56.4322601,20.3109651 L52.1014847,22.9090941 C40.5589386,29.8337257 28.8846122,33.3355705 17.1427816,33.3355705 C5.40095095,33.3355705 -6.27337543,29.8337257 -17.8159215,22.9090941 L-22.1466969,20.3109651 L-16.9504389,11.6494144 L-12.6196635,14.2475434 C-2.58849355,20.2654667 7.31089615,23.2348993 17.1427816,23.2348993 C26.974667,23.2348993 36.8740567,20.2654667 46.9052267,14.2475434 L51.236002,11.6494144 Z" id="Path" fill="#EBFF85" fill-rule="nonzero" transform="translate(17.1428, 22.4925) scale(-1, 1) translate(-17.1428, -22.4925)"></path>
        <path d="M254.336345,2.02348993 L259.532603,10.6850406 L255.201828,13.2831696 C243.659281,20.2078012 231.984955,23.709646 220.243124,23.709646 C208.501294,23.709646 196.826967,20.2078012 185.284421,13.2831696 L180.953646,10.6850406 L186.149904,2.02348993 L190.480679,4.62161894 C200.511849,10.6395422 210.411239,13.6089749 220.243124,13.6089749 C230.07501,13.6089749 239.9744,10.6395422 250.00557,4.62161894 L254.336345,2.02348993 Z" id="Path" fill="#EBFF85" fill-rule="nonzero" transform="translate(220.2431, 12.8666) scale(1, -1) translate(-220.2431, -12.8666)"></path>
        <path d="M321.933989,11.6494144 L327.130247,20.3109651 L322.799471,22.9090941 C311.256925,29.8337257 299.582599,33.3355705 287.840768,33.3355705 C276.098938,33.3355705 264.424611,29.8337257 252.882065,22.9090941 L248.55129,20.3109651 L253.747548,11.6494144 L258.078323,14.2475434 C268.109493,20.2654667 278.008883,23.2348993 287.840768,23.2348993 C297.672654,23.2348993 307.572043,20.2654667 317.603213,14.2475434 L321.933989,11.6494144 Z" id="Path" fill="#EBFF85" fill-rule="nonzero" transform="translate(287.8408, 22.4925) scale(-1, 1) translate(-287.8408, -22.4925)"></path>
        <path d="M118.987352,2.02348993 L124.18361,10.6850406 L119.852834,13.2831696 C108.310288,20.2078012 96.6359618,23.709646 84.8941312,23.709646 C73.1523005,23.709646 61.4779741,20.2078012 49.935428,13.2831696 L45.6046527,10.6850406 L50.8009107,2.02348993 L55.1316861,4.62161894 C65.162856,10.6395422 75.0622457,13.6089749 84.8941312,13.6089749 C94.7260166,13.6089749 104.625406,10.6395422 114.656576,4.62161894 L118.987352,2.02348993 Z" id="Path" fill="#EBFF85" fill-rule="nonzero" transform="translate(84.8941, 12.8666) scale(1, -1) translate(-84.8941, -12.8666)"></path>
        <path d="M186.584995,11.6494144 L191.781253,20.3109651 L187.450478,22.9090941 C175.907932,29.8337257 164.233606,33.3355705 152.491775,33.3355705 C140.749944,33.3355705 129.075618,29.8337257 117.533072,22.9090941 L113.202296,20.3109651 L118.398554,11.6494144 L122.72933,14.2475434 C132.7605,20.2654667 142.659889,23.2348993 152.491775,23.2348993 C162.32366,23.2348993 172.22305,20.2654667 182.25422,14.2475434 L186.584995,11.6494144 Z" id="Path" fill="#EBFF85" fill-rule="nonzero" transform="translate(152.4918, 22.4925) scale(-1, 1) translate(-152.4918, -22.4925)"></path>
    </g>
</svg>