<?xml version="1.0" encoding="UTF-8" standalone="no"?>
<!DOCTYPE svg PUBLIC "-//W3C//DTD SVG 1.1//EN" "http://www.w3.org/Graphics/SVG/1.1/DTD/svg11.dtd">
<svg width="100%" height="100%" viewBox="0 0 1080 230" version="1.1" xmlns="http://www.w3.org/2000/svg" xmlns:xlink="http://www.w3.org/1999/xlink" xml:space="preserve" xmlns:serif="http://www.serif.com/" style="fill-rule:evenodd;clip-rule:evenodd;stroke-linecap:square;stroke-linejoin:round;">
    <g id="Artboard1" transform="matrix(1,0,0,0.212963,0,0)">
        <rect x="0" y="0" width="1080" height="1080" style="fill:none;"/>
        <clipPath id="_clip1">
            <rect x="0" y="0" width="1080" height="1080"/>
        </clipPath>
        <g clip-path="url(#_clip1)">
            <g id="Line" transform="matrix(2.86914,0,0,13.5021,-608.938,220.071)">
                <g id="Line1" serif:id="Line">
                    <path id="Line2" serif:id="Line" d="M208.148,26.195C212.817,23.394 216.036,21.262 216.148,21.195C246.148,3.195 276.148,-5.805 306.148,-5.805C336.148,-5.805 366.148,3.195 396.148,21.195C396.148,21.195 401.582,24.417 404.545,26.195C434.545,44.195 464.545,53.195 494.545,53.195C524.545,53.195 554.545,44.195 584.545,26.195C589.214,23.394 592.433,21.262 592.545,21.195C622.545,3.195 652.545,-5.805 682.545,-5.805C712.545,-5.805 742.545,3.195 772.545,21.195" style="fill:none;stroke:rgb(223,129,151);stroke-width:10px;"/>
                </g>
            </g>
        </g>
    </g>
</svg>
