<?xml version="1.0" encoding="UTF-8"?>
<svg width="373px" height="70px" viewBox="0 0 373 70" version="1.1" xmlns="http://www.w3.org/2000/svg" xmlns:xlink="http://www.w3.org/1999/xlink">
    <title>Combined Shape Copy</title>
    <g id="Page-1" stroke="none" stroke-width="1" fill="none" fill-rule="evenodd">
        <g id="Artboard" transform="translate(-569, -233)" fill="#EBFF85" fill-rule="nonzero">
            <g id="Group-2" transform="translate(569.4246, 138.5356)">
                <g id="Group" transform="translate(0, 0)">
                    <path d="M280.173831,95 C310.831562,95 341.423674,104.092086 371.88828,122.200122 L371.888817,133.859943 L367.601352,131.287465 C338.349557,113.736387 309.228266,105 280.173831,105 C251.119397,105 221.998105,113.736387 192.74631,131.287465 L188.570986,133.791 L184.287465,136.368618 C156.736782,152.899027 129.081325,162.055167 101.366881,163.78071 L82.0629702,163.780703 C54.6362257,162.073051 27.2672514,153.088274 0.000420797711,136.880962 L1.15463195e-14,125.22121 L4.28746463,127.793688 C33.5392601,145.344766 62.6605513,154.081153 91.7149859,154.081153 C120.76942,154.081153 149.890712,145.344766 179.142507,127.793688 L183.314986,125.289 L187.601352,122.712535 C218.349557,104.263613 249.228266,95 280.173831,95 Z" id="Combined-Shape-Copy" transform="translate(185.9444, 129.3904) scale(-1, 1) translate(-185.9444, -129.3904)"></path>
                </g>
            </g>
        </g>
    </g>
</svg>